<svg width="113" height="81" viewBox="0 0 113 81" fill="none" xmlns="http://www.w3.org/2000/svg">
<path d="M12.6289 57.5346H7.82518V70.055H4.80373V57.5346H0V54.8394H12.6289V57.5346Z" fill="#100D26"/>
<path d="M21.1272 60.0782L19.8666 62.3168C19.2579 61.9042 18.736 61.7515 18.1273 61.7515C16.5409 61.7515 15.5191 62.8603 15.5191 64.8164V70.0551H12.6284V59.3173H15.1278L15.3672 60.6647C16.1929 59.5562 17.2148 59.0996 18.3885 59.0996C19.388 59.0998 20.4316 59.4258 21.1272 60.0782Z" fill="#100D26"/>
<path d="M33.1471 59.3174V70.0552H30.6471L30.4516 68.7512C29.5604 69.7508 28.2565 70.2944 26.7346 70.2944C23.6481 70.2944 21.5181 67.9903 21.5181 64.6865C21.5181 61.3823 23.6481 59.0781 26.7346 59.0781C28.2564 59.0781 29.5821 59.6217 30.4516 60.5997L30.6471 59.3174H33.1471ZM30.2777 64.6865C30.2777 62.8818 29.0601 61.5995 27.3213 61.5995C25.6044 61.5995 24.3869 62.8818 24.3869 64.6865C24.3869 66.4904 25.6044 67.7727 27.3213 67.7727C29.0601 67.7727 30.2777 66.4903 30.2777 64.6865Z" fill="#100D26"/>
<path d="M35.6235 56.3174C35.6235 55.3177 36.3623 54.6218 37.3841 54.6218C38.4054 54.6218 39.1666 55.3176 39.1666 56.3174C39.1666 57.2742 38.4054 57.9695 37.3841 57.9695C36.3623 57.9695 35.6235 57.2742 35.6235 56.3174ZM35.9279 59.3173H38.8186V70.0551H35.9279V59.3173Z" fill="#100D26"/>
<path d="M44.4914 54.8394H41.6006V70.0553H44.4914V54.8394Z" fill="#100D26"/>
<path d="M58.902 64.6866C58.902 67.9903 56.7714 70.2944 53.6851 70.2944C52.1418 70.2944 50.8376 69.7509 49.9681 68.7512L49.7724 70.0552H47.2729V54.8394H50.1637V60.4039C51.0332 59.5563 52.2725 59.0782 53.6851 59.0782C56.7714 59.0782 58.902 61.3823 58.902 64.6866ZM56.0327 64.6866C56.0327 62.8818 54.8155 61.5995 53.0982 61.5995C51.3593 61.5995 50.1418 62.8818 50.1418 64.6866C50.1418 66.4905 51.3592 67.7727 53.0982 67.7727C54.8155 67.7727 56.0327 66.4904 56.0327 64.6866Z" fill="#100D26"/>
<path d="M63.9224 54.8394H61.0312V70.0553H63.9224V54.8394Z" fill="#100D26"/>
<path d="M77.6802 59.3174V70.0552H75.181L74.9851 68.7512C74.0939 69.7508 72.7898 70.2944 71.2682 70.2944C68.1819 70.2944 66.0513 67.9903 66.0513 64.6865C66.0513 61.3823 68.1818 59.0781 71.2682 59.0781C72.7898 59.0781 74.116 59.6217 74.9851 60.5997L75.181 59.3174H77.6802ZM74.8109 64.6865C74.8109 62.8818 73.594 61.5995 71.8547 61.5995C70.1376 61.5995 68.9202 62.8818 68.9202 64.6865C68.9202 66.4904 70.1375 67.7727 71.8547 67.7727C73.5939 67.7727 74.8109 66.4903 74.8109 64.6865Z" fill="#100D26"/>
<path d="M89.0693 67.4466V70.0555H79.6572V69.0116L84.7436 61.8603H80.0482V59.3169H88.9821V60.2953L83.9174 67.4466H89.0693Z" fill="#100D26"/>
<path d="M101.675 65.6427H93.394C93.5892 66.9902 94.7636 67.8815 96.5024 67.8815C97.6543 67.8815 98.8061 67.49 99.5018 66.8597L101.111 68.5118C99.98 69.6636 98.2625 70.3377 96.3935 70.3377C92.7633 70.3377 90.4595 68.1423 90.4595 64.7076C90.4595 61.3604 92.7416 59.0996 96.1105 59.0996C100.002 59.0998 102.154 61.6649 101.675 65.6427ZM93.4374 63.7298H98.9586C98.8499 62.3386 97.806 61.469 96.198 61.469C94.676 61.469 93.6542 62.2952 93.4374 63.7298Z" fill="#100D26"/>
<path d="M112.281 60.0782L111.021 62.3168C110.412 61.9042 109.891 61.7515 109.282 61.7515C107.695 61.7515 106.674 62.8603 106.674 64.8164V70.0551H103.783V59.3173H106.282L106.521 60.6647C107.347 59.5562 108.369 59.0996 109.543 59.0996C110.542 59.0998 111.586 59.4258 112.281 60.0782Z" fill="#100D26"/>
<path d="M5.20184 75.4458H4.8291V80.3733H5.20184V75.4458Z" fill="#100D26"/>
<path d="M9.16584 75.4458L12.4812 79.5217V75.4458H12.8546V80.3733H12.7063L9.38395 76.3045V80.3733H9.00391V75.4458H9.16584Z" fill="#100D26"/>
<path d="M16.8332 75.4458L20.1487 79.5217V75.4458H20.5219V80.3733H20.3741L17.0514 76.3045V80.3733H16.6714V75.4458H16.8332Z" fill="#100D26"/>
<path d="M29.1604 77.9167C29.1531 79.2117 28.3297 80.4578 26.6755 80.4578C25.0211 80.4578 24.1904 79.205 24.1904 77.9029C24.1904 76.5794 25.0143 75.3684 26.6755 75.3684C28.3366 75.3685 29.1673 76.5862 29.1604 77.9167ZM24.5638 77.9097C24.5707 79.0218 25.2747 80.1061 26.6755 80.1061C28.0831 80.1061 28.7944 79.0219 28.7944 77.9097C28.7944 76.7693 28.0904 75.7207 26.6755 75.7207C25.2605 75.7206 24.5565 76.7484 24.5638 77.9097Z" fill="#100D26"/>
<path d="M36.6379 75.4458L34.6108 80.3876H34.2024L32.1753 75.4458H32.5834L34.4063 79.9508L36.2298 75.4458H36.6379Z" fill="#100D26"/>
<path d="M43.9246 80.3733L43.3827 79.1628H40.4405L39.9054 80.3733H39.4971L41.7072 75.4458H42.1227L44.3331 80.3733H43.9246ZM43.2348 78.8107L41.9113 75.8119L40.5877 78.8107H43.2348Z" fill="#100D26"/>
<path d="M48.2696 75.7909H46.4888V75.4529H50.4305V75.7909H48.6499V80.3733H48.2696V75.7909Z" fill="#100D26"/>
<path d="M54.2401 75.4458H53.8672V80.3733H54.2401V75.4458Z" fill="#100D26"/>
<path d="M62.9414 77.9167C62.9344 79.2117 62.1112 80.4578 60.4568 80.4578C58.8021 80.4578 57.9717 79.205 57.9717 77.9029C57.9717 76.5794 58.7958 75.3684 60.4568 75.3684C62.1176 75.3685 62.9483 76.5862 62.9414 77.9167ZM58.3452 77.9097C58.3519 79.0218 59.056 80.1061 60.4569 80.1061C61.8648 80.1061 62.5755 79.0219 62.5755 77.9097C62.5755 76.7693 61.8715 75.7207 60.4569 75.7207C59.0421 75.7206 58.3381 76.7484 58.3452 77.9097Z" fill="#100D26"/>
<path d="M66.7234 75.4458L70.0387 79.5217V75.4458H70.4119V80.3733H70.2638L66.9417 76.3045V80.3733H66.5615V75.4458H66.7234Z" fill="#100D26"/>
<path d="M77.4948 76.3961C77.1355 75.8188 76.5586 75.7344 76.002 75.7273C75.4255 75.7273 74.5103 75.9385 74.5103 76.7269C74.5103 77.3535 75.1859 77.5011 76.0163 77.6559C76.9669 77.8395 77.9525 78.0081 77.9525 79.0711C77.9454 80.1832 76.826 80.4506 76.002 80.4506C75.2352 80.4506 74.3623 80.1339 73.9824 79.3804L74.32 79.2114C74.6227 79.81 75.3971 80.1058 76.002 80.1058C76.6077 80.1058 77.5723 79.9367 77.5723 79.0638C77.5793 78.3247 76.7628 78.1629 75.9535 78.008C75.0525 77.8319 74.1301 77.6491 74.1301 76.7411C74.1091 75.6991 75.193 75.3752 76.002 75.3752C76.7063 75.3752 77.3187 75.4878 77.804 76.2131L77.4948 76.3961Z" fill="#100D26"/>
<path d="M81.8889 80.1621C81.8889 80.2044 81.8815 80.2396 81.8675 80.2818L81.586 81.0001H81.2832L81.5016 80.4156C81.41 80.3805 81.3326 80.296 81.3326 80.1621C81.3327 79.7962 81.8889 79.7962 81.8889 80.1621Z" fill="#100D26"/>
<path d="M90.598 75.4458V80.0144H93.3714V80.3733H90.2178V75.4458H90.598Z" fill="#100D26"/>
<path d="M97.181 75.4458V80.0144H99.9543V80.3733H96.8008V75.4458H97.181Z" fill="#100D26"/>
<path d="M107.453 79.6908C106.96 80.1835 106.305 80.43 105.657 80.43C103.996 80.43 103.13 79.2683 103.123 77.9377C103.109 76.6217 103.968 75.3899 105.657 75.3899C106.305 75.3899 106.96 75.6362 107.453 76.1291L107.192 76.3541C106.769 75.9316 106.213 75.7275 105.657 75.7275C104.222 75.7275 103.482 76.7414 103.489 77.9239C103.503 79.0784 104.236 80.0778 105.657 80.0778C106.214 80.0778 106.776 79.8665 107.199 79.4515L107.453 79.6908Z" fill="#100D26"/>
<mask id="mask0_317_5034" style="mask-type:luminance" maskUnits="userSpaceOnUse" x="36" y="0" width="40" height="49">
<path d="M54.3232 34.6815L53.9856 34.3506C52.1292 36.3653 49.8164 39.6718 49.4654 39.2333C48.9474 38.5865 45.5841 35.9986 45.5841 35.9986L40.3909 40.3616C43.9157 45.2405 49.6488 48.4184 56.1282 48.4184C63.035 48.4184 69.406 44.7964 72.8658 39.3612C69.621 39.5092 64.2426 39.6797 63.4376 39.2333C62.2763 38.5876 57.3791 33.4343 56.0728 32.8985L54.3232 34.6815ZM74.667 31.9205C74.9441 32.1329 75.1986 32.3273 75.412 32.4922C75.4801 31.9979 75.5246 31.4966 75.55 30.9904L74.667 31.9205ZM72.1808 30.0453C72.6242 30.3758 73.0578 30.7004 73.4642 31.0076L75.5179 28.8426C75.4625 28.1229 75.3762 27.4417 75.2689 26.7889L72.1808 30.0453ZM71.1025 26.6842L69.6579 28.2066C70.0829 28.5079 70.5219 28.8254 70.9626 29.1472L72.0532 27.9977C72.2709 26.8615 71.6423 26.6798 71.2229 26.6798C71.1803 26.6798 71.1396 26.6813 71.1025 26.6842ZM53.6222 27.1882C53.9871 27.4425 54.3532 27.6989 54.7156 27.9539L58.5565 24.0687C58.1195 23.9872 57.6555 23.8317 57.1694 23.6047L53.6222 27.1882ZM73.3434 24.3214C72.9367 25.3746 73.794 25.591 74.3002 25.6285L74.8999 24.9965C74.7418 24.3819 74.557 23.8054 74.3544 23.2558L73.3434 24.3214ZM44.4468 23.0353L36.7962 30.6412C36.8572 31.372 36.9573 32.0911 37.0966 32.7965L45.5133 24.4331C45.7885 23.2043 45.1316 23.0143 44.7013 23.0143C44.598 23.0144 44.5081 23.0256 44.4468 23.0353ZM66.166 22.6143L58.448 30.4786L62.4356 33.2335C62.4356 33.2335 61.5728 31.3444 60.641 29.6059C60.7397 29.5151 60.8403 29.4215 60.9439 29.3251C61.8325 28.4996 62.8932 27.5037 63.9213 26.8288C64.3754 26.5331 64.8223 26.2975 65.2556 26.1696L67.1772 24.144L67.1742 24.1365C67.523 22.7996 66.8411 22.5969 66.3955 22.5969C66.3059 22.5971 66.2259 22.6054 66.166 22.6143ZM51.2535 25.5948C51.6062 25.8191 51.9782 26.0644 52.3641 26.3254L55.8358 22.817C55.4545 22.5313 55.144 22.2301 54.8962 21.9137L51.2535 25.5948ZM67.0447 26.4659C67.4278 26.6898 67.8907 26.9881 68.4107 27.3403L73.7145 21.7485C73.4614 21.231 73.1899 20.7443 72.9013 20.2908L67.0447 26.4659ZM46.8549 25.2165C47.1336 25.0639 47.4042 24.9241 47.6564 24.8149C48.1411 24.6055 48.5729 24.4814 48.9489 24.4799C49.1143 24.4799 49.2698 24.5053 49.4109 24.564C49.5637 24.628 49.7371 24.7139 49.9191 24.8089L54.1911 20.4915C53.9878 19.7243 53.9981 18.8906 54.1233 17.9938L46.8549 25.2165ZM68.5199 20.2134C68.0376 21.4187 69.1855 21.5492 69.6329 21.5548L72.0076 19.0514C71.6458 18.6008 71.2681 18.1877 70.8786 17.8101L68.5199 20.2134ZM38.2334 22.6248L42.7822 18.0757C42.9852 17.0123 42.4487 16.7851 42.0337 16.7623C40.221 18.795 39.0193 20.822 38.2334 22.6248ZM62.5825 22.132C62.1904 22.8292 61.6542 23.3897 60.9917 23.7411L55.9629 28.8264C56.3846 29.1203 56.7891 29.3992 57.1596 29.6467L69.745 16.8224C69.3722 16.533 68.9961 16.2669 68.6177 16.0287L62.5825 22.132ZM48.1148 14.8659L37.1514 25.8295C36.8459 27.0974 36.756 28.0683 36.731 28.5887L49.1461 16.2459C49.4075 15.0399 48.7585 14.8506 48.331 14.8506C48.2476 14.8506 48.1729 14.8581 48.1148 14.8659ZM63.1976 17.5123C63.3131 18.0902 63.3549 18.6693 63.3377 19.2327L67.2563 15.2702C66.8192 15.0563 66.3896 14.8717 65.9705 14.7109L63.1976 17.5123ZM62.6857 15.8959L64.3718 14.1923C62.5119 13.6931 61.1742 13.6815 61.1742 13.6815C61.8345 14.3419 62.3328 15.0989 62.6857 15.8959ZM46.9096 20.5872C46.3996 21.8419 47.599 21.9627 47.9928 21.969L54.6795 15.3247C54.9173 14.3403 55.1676 13.2999 55.3383 12.2074L46.9096 20.5872ZM50.5653 12.4153C50.0447 13.6648 51.1889 13.7975 51.6013 13.8061L55.5434 9.88696C55.5499 9.31974 55.524 8.74141 55.4491 8.15066C55.4258 7.96709 55.3969 7.79063 55.3658 7.61488L50.5653 12.4153ZM44.1359 14.3916C43.7216 15.5031 44.6959 15.6851 45.1481 15.7099L54.9208 5.93706C54.7012 5.33109 54.4334 4.7841 54.1317 4.29129L44.1359 14.3916ZM49.0198 4.85801C48.8865 5.95569 48.5642 7.10715 48.0458 8.30688L53.229 3.06943C52.8255 2.61147 52.3979 2.2178 51.9662 1.88131L49.0198 4.85801ZM49.0212 2.72283L50.6916 1.03449C49.2632 0.232537 48.0746 0 48.0746 0C48.5841 0.842315 48.8907 1.75533 49.0212 2.72283Z" fill="white"/>
</mask>
<g mask="url(#mask0_317_5034)">
<path d="M75.55 0H36.731V48.4184H75.55V0Z" fill="#F7892F"/>
</g>
</svg>
