<svg width="114" height="103" viewBox="0 0 114 103" fill="none" xmlns="http://www.w3.org/2000/svg">
<g clip-path="url(#clip0_424_50)">
<path d="M26.7233 84.6836C26.6602 75.8133 24.5947 66.9024 22.2305 58.3983C21.003 53.8835 19.4503 49.4634 17.5847 45.1726C16.0784 41.7564 14.2161 38.2121 11.2799 35.8242C11.2706 35.8147 11.2579 35.8093 11.2446 35.8091C11.2313 35.809 11.2185 35.8141 11.209 35.8234C11.1995 35.8327 11.1941 35.8454 11.1939 35.8587C11.1938 35.872 11.1989 35.8849 11.2082 35.8944C16.9443 42.1726 19.5597 51.2838 21.7456 59.2896C24.0365 67.6102 25.6449 76.1038 26.555 84.6859C26.5652 84.7908 26.7245 84.7952 26.7233 84.6836Z" fill="black"/>
<path d="M78.6853 22.3741L79.9968 29.2193C64.3838 29.5309 49.1257 34.3433 40.0901 47.8858C34.0888 56.8892 32.1144 68.8042 33.8372 79.3885C33.9394 80.0213 34.6304 80.4235 35.2177 80.4368C35.7667 80.4477 36.3149 80.4591 36.8625 80.4709C36.9628 81.6484 37.0982 82.8171 37.2861 83.9671C37.3882 84.5999 38.0809 85.0025 38.6682 85.0158C46.3168 85.1772 53.9666 85.3317 61.6177 85.4792C62.5949 85.5003 63.1136 84.5652 62.9653 83.703C61.6309 75.9837 61.8561 68.106 65.3746 60.9777C69.1678 53.2865 76.7689 49.1267 84.7055 46.9132L86.6001 52.6983C86.8723 53.5335 88.073 54.0886 88.7691 53.3761L90.0468 57.2781C90.33 58.1472 91.6196 58.7244 92.3012 57.8821C98.1993 50.5908 104.286 43.4523 110.23 36.1951C110.72 35.597 110.805 34.5256 109.973 34.1202C108.715 33.5279 107.452 32.9341 106.183 32.3388L106.781 31.6092C107.27 31.0107 107.356 29.9397 106.524 29.5343C97.8184 25.4292 88.9322 21.3796 79.6614 18.7314C78.7769 18.4798 78.1078 19.3162 78.2658 20.1354L78.5995 21.8843C78.5913 22.0519 78.6206 22.2193 78.6853 22.3741ZM63.5833 58.4954C59.1703 65.6412 58.8122 74.5118 59.9709 82.6417L41.4631 82.2415C40.9535 82.2308 40.4427 82.2179 39.9327 82.2089C39.8503 81.8728 39.7906 81.5315 39.7542 81.1873C39.682 80.5243 39.6415 79.8587 39.6027 79.1937C39.4175 75.692 39.6387 72.1806 40.262 68.7298C44.119 46.3996 63.8816 36.7271 84.9553 36.2557C85.7879 36.2381 86.3053 35.4777 86.1382 34.6925C85.5347 31.8338 84.9158 28.9781 84.32 26.1178C90.8116 28.2219 97.1379 31.0112 103.351 33.9105C103.54 34.0828 103.777 34.1934 104.03 34.2274C105.097 34.7285 106.161 35.2306 107.222 35.7338C102.125 41.8957 96.9462 47.992 91.8751 54.1774L88.7286 44.4826C88.6264 44.1369 88.3944 43.8441 88.0812 43.6657C87.768 43.4873 87.3979 43.437 87.0484 43.5255C77.4615 45.5958 68.858 49.9575 63.5833 58.4954Z" fill="black"/>
<path d="M81.8014 50.2235C70.2269 54.0153 64.3176 65.8333 64.104 77.3631C64.1061 77.3906 64.1176 77.4165 64.1366 77.4365C64.1557 77.4565 64.181 77.4693 64.2083 77.4728C64.2357 77.4763 64.2634 77.4702 64.2868 77.4556C64.3102 77.441 64.3279 77.4187 64.3368 77.3926C65.5755 71.9055 66.3724 66.4678 69.1718 61.4919C72.1514 56.1977 76.9455 53.5233 81.847 50.3324C81.901 50.294 81.868 50.1994 81.8014 50.2235Z" fill="black"/>
<path d="M64.5191 81.8034C64.5286 81.8195 64.543 81.8321 64.5603 81.8391C64.5776 81.8461 64.5967 81.8472 64.6146 81.8423C64.6326 81.8373 64.6484 81.8265 64.6597 81.8117C64.6709 81.7968 64.6769 81.7786 64.6767 81.7599C64.6411 80.8787 64.2108 79.7896 64.4945 78.9283C64.4988 78.9123 64.4977 78.8953 64.4914 78.8799C64.4851 78.8645 64.474 78.8516 64.4596 78.8432C64.4453 78.8348 64.4286 78.8314 64.4121 78.8334C64.3956 78.8354 64.3802 78.8428 64.3684 78.8544C63.7414 79.6019 64.1034 81.041 64.5191 81.8034Z" fill="black"/>
<path d="M105.794 25.7775C102.681 23.499 98.6094 22.2111 95.038 20.8055C90.7751 19.129 86.3743 17.4228 81.9007 16.4101C81.7901 16.3804 81.7077 16.5517 81.8196 16.6035C85.4451 18.3044 89.3153 19.4454 93.0662 20.8279C97.3113 22.3939 101.439 24.5595 105.75 25.8951C105.819 25.9172 105.849 25.8177 105.794 25.7775Z" fill="black"/>
<path d="M40.2139 44.5509C40.166 44.6822 40.3602 44.747 40.4303 44.6418C44.1894 38.9018 48.5071 34.6026 54.7053 31.5202C61.0172 28.3809 67.6669 27.5878 74.5866 27.1077C74.6076 27.1031 74.6264 27.0915 74.6398 27.0747C74.6532 27.0578 74.6604 27.0369 74.6602 27.0154C74.6599 26.9939 74.6523 26.9731 74.6385 26.9566C74.6247 26.9401 74.6056 26.9289 74.5845 26.9248C62.3633 25.4737 44.7177 32.214 40.2139 44.5509Z" fill="black"/>
<path d="M40.7063 87.0591C40.6149 87.0601 40.5876 87.2096 40.6851 87.2266C43.4657 87.6908 46.2861 87.8156 49.0979 87.9727C52.1197 88.1424 55.341 88.391 58.3278 87.7999C58.3917 87.786 58.3718 87.6968 58.3129 87.6919C55.5732 87.4903 52.792 87.6277 50.0427 87.5092C46.928 87.3804 43.8236 86.988 40.7063 87.0591Z" fill="black"/>
<path d="M103.458 47.711C101.756 49.6256 99.9083 51.4865 98.4221 53.5756C98.3512 53.677 98.4956 53.7777 98.582 53.7005C100.795 51.8808 102.602 49.5202 104.484 47.3677C106.145 45.4639 107.942 43.6423 109.434 41.6003C109.459 41.5687 109.409 41.5388 109.381 41.5605C107.149 43.3167 105.332 45.5964 103.458 47.711Z" fill="black"/>
<path d="M103.966 49.8256C103.323 50.4975 102.651 51.1455 102.227 51.9818C102.216 51.9996 102.212 52.0208 102.215 52.0413C102.219 52.0618 102.23 52.0803 102.247 52.0931C102.263 52.1059 102.284 52.1121 102.305 52.1106C102.326 52.1091 102.345 52.0999 102.36 52.0849C103.081 51.5215 103.671 50.8243 104.293 50.1558C104.916 49.4873 105.519 48.7955 105.88 47.9513C105.906 47.8928 105.84 47.8276 105.788 47.8792C105.151 48.4983 104.58 49.1822 103.966 49.8256Z" fill="black"/>
<path d="M62.8663 26.1555C62.91 26.149 62.8961 26.0851 62.8552 26.0814C60.5243 25.9328 58.0658 26.8733 55.9726 27.8115C53.6159 28.8686 51.1882 30.0891 49.4206 32.0171C49.3618 32.0798 49.4396 32.2046 49.518 32.1435C53.4534 29.1825 58.0132 27.0562 62.8663 26.1555Z" fill="black"/>
</g>
<defs>
<clipPath id="clip0_424_50">
<rect width="80.3674" height="96.3771" fill="white" transform="translate(113.894 24.9442) rotate(105)"/>
</clipPath>
</defs>
</svg>
