<svg width="80" height="80" viewBox="0 0 80 80" fill="none" xmlns="http://www.w3.org/2000/svg">
<g clip-path="url(#clip0_428_2)">
<path d="M73.7184 16.2506C79.9794 11.5032 75.3377 -0.870837 66.7455 1.92228C59.3534 4.31911 60.7246 13.8074 66.0943 16.7667C65.0911 24.8952 66.6623 34.8612 62.8078 42.2163C60.4478 46.716 51.5452 32.7184 50.71 31.3011C48.5035 27.5525 46.6523 23.6057 44.4795 19.8394C48.9164 14.5344 44.3435 4.00911 36.3497 6.60569C28.3944 9.18948 30.5896 19.9753 36.9897 22.003C36.9719 22.065 36.9607 22.1287 36.9561 22.1931C37.3113 30.4191 38.9946 39.0205 36.8793 47.133C33.5641 59.8474 18.6566 36.7962 15.2629 31.953C20.3366 26.8126 15.7285 15.6226 7.51394 18.2911C-0.0334132 20.7438 1.55542 30.5836 7.20833 33.3112C7.2067 33.3384 7.2067 33.3656 7.20833 33.3927C8.40516 41.2847 11.3684 49.0361 14.3557 56.4024C16.7829 62.3977 19.6358 70.5773 24.3879 75.1648C26.7271 77.4226 31.0776 77.3124 34.0537 77.2692C39.5578 77.1861 45.0939 76.0852 50.4236 74.7973C58.8766 72.7536 71.224 69.6201 76.5697 62.0413C77.7073 60.4275 77.6417 58.3838 77.7585 56.503C78.0433 51.9155 77.8513 47.2976 77.5745 42.7164C77.0385 33.8321 75.8337 24.9048 73.7184 16.2506ZM66.5823 4.91832C72.4048 0.763806 77.6625 12.2463 71.1072 14.8492C68.7952 15.5315 66.8143 14.7821 65.2191 13.026C62.699 10.2585 63.7374 6.94285 66.5823 4.91832ZM36.1817 9.60973C42.0042 5.45521 47.2635 16.9409 40.7066 19.5422C38.3946 20.2229 36.4137 19.4751 34.8201 17.7174C32.3032 14.9435 33.3433 11.6279 36.1817 9.60973ZM7.35073 21.2935C13.1749 17.139 18.4326 28.6246 11.8772 31.2244C9.56518 31.9083 7.58274 31.1589 5.98911 29.4028C3.47386 26.6273 4.51228 23.3116 7.34754 21.2855L7.35073 21.2935ZM74.2625 60.6927C72.3584 63.8661 67.8623 65.7325 64.6623 67.2073C59.8926 69.406 54.7949 70.9336 49.7116 72.2167C44.8555 73.4407 39.8826 74.294 34.8777 74.564C31.5528 74.7382 27.3303 74.9667 25.2599 71.9594C17.4869 60.6767 13.0996 47.0803 9.47878 33.9696C10.3927 34.0695 11.3172 34.0051 12.2084 33.7794C12.3285 33.7686 12.4464 33.7412 12.5588 33.6979C12.6765 33.665 12.7886 33.6149 12.8916 33.5493C13.1189 33.4503 13.3397 33.3464 13.5477 33.2297C17.0117 39.6549 28.852 59.3968 37.0553 51.8803C40.3498 48.8635 40.2426 42.3825 40.3066 38.3574C40.3898 33.0077 39.8826 27.6228 39.1002 22.3305C39.7532 22.3315 40.4039 22.2526 41.0378 22.0957C41.1584 22.0841 41.2768 22.0561 41.3898 22.0126C41.5072 21.979 41.6193 21.929 41.7226 21.8639C42.0857 21.7082 42.4365 21.5256 42.7722 21.3175C45.6875 27.0699 48.5596 32.8527 52.2428 38.1561C54.0733 40.791 57.7821 46.3788 61.7214 45.6997C65.3871 45.0605 66.2175 40.6775 66.7919 37.6176C68.0303 31.0359 67.9887 24.2113 68.2319 17.5273C69.2949 17.7153 70.3856 17.6755 71.432 17.4106C71.48 17.4106 71.528 17.3963 71.5776 17.3851C72.9776 25.2419 74.1376 33.1387 74.7777 41.0962C75.0737 44.7713 75.1937 48.4465 75.1985 52.1392C75.2017 54.7534 75.6481 58.3694 74.2625 60.6927Z" fill="black"/>
<path d="M40.2901 16.7715C39.1461 16.7283 38.1797 16.8322 37.1253 16.2921C36.3109 15.8702 35.7764 14.6638 34.9108 14.4753C34.8812 14.4683 34.8499 14.4728 34.8235 14.4879C34.797 14.5031 34.7773 14.5277 34.7684 14.5568C34.3316 15.6513 35.9892 16.9536 36.7765 17.4602C37.9205 18.1888 39.4821 18.2591 40.5509 17.4058C40.8213 17.1869 40.5797 16.7826 40.2901 16.7715Z" fill="black"/>
<path d="M11.851 29.6233C11.87 29.6041 11.8845 29.5807 11.8931 29.5551C11.9017 29.5294 11.9044 29.5021 11.9008 29.4753C11.8973 29.4484 11.8876 29.4228 11.8726 29.4002C11.8576 29.3777 11.8376 29.3589 11.8142 29.3453C10.7854 28.8915 9.65893 28.9266 8.64931 28.3977C7.76929 27.9359 7.24609 27.0171 6.33247 26.6624C6.30107 26.6535 6.26742 26.6575 6.23893 26.6734C6.21043 26.6892 6.1894 26.7157 6.18046 26.7471C5.98526 27.912 7.17408 28.8467 8.0573 29.4076C9.15972 30.1059 10.7614 30.4925 11.851 29.6233Z" fill="black"/>
<path d="M70.6444 12.6281C69.6524 12.2494 68.6332 12.2255 67.7052 11.6502C66.6908 11.0207 66.4492 9.95967 65.7308 9.11918C65.701 9.0902 65.6643 9.0694 65.6241 9.05885C65.5839 9.0483 65.5417 9.04834 65.5016 9.05897C65.4614 9.06959 65.4247 9.09045 65.3951 9.11949C65.3654 9.14853 65.3438 9.18475 65.3323 9.22463C64.9579 10.3959 66.0524 11.7813 66.9324 12.438C67.974 13.2178 69.5228 13.8857 70.6988 13.05C70.7371 13.0264 70.7678 12.9924 70.7872 12.9518C70.8066 12.9113 70.8138 12.8661 70.8081 12.8215C70.8023 12.777 70.7838 12.735 70.7548 12.7007C70.7258 12.6664 70.6875 12.6412 70.6444 12.6281Z" fill="black"/>
<path d="M60.4127 64.9527C55.1182 66.33 49.8781 67.8528 44.5388 69.0593C38.4586 70.4334 31.6809 72.4276 26.0072 69.0593C25.8968 68.9921 25.8024 69.1375 25.8776 69.2286C29.5033 73.5941 35.1002 72.3685 40.0795 71.528C47.078 70.3487 54.259 68.6694 60.5967 65.3969C60.8431 65.2611 60.6703 64.8855 60.4127 64.9527Z" fill="black"/>
<path d="M63.3385 63.5369C62.9033 63.7367 62.3145 63.9412 62.0985 64.4078C62.0908 64.4209 62.0863 64.4356 62.0852 64.4507C62.0841 64.4658 62.0866 64.481 62.0923 64.495C62.098 64.5091 62.1069 64.5216 62.1182 64.5317C62.1295 64.5418 62.143 64.5491 62.1577 64.5532C62.6537 64.6571 63.1673 64.3742 63.6169 64.1969C64.1849 63.9748 64.6905 63.823 65.0746 63.326C65.0932 63.3065 65.1057 63.282 65.1106 63.2556C65.1156 63.2291 65.1127 63.2017 65.1024 63.1768C65.092 63.1519 65.0747 63.1306 65.0524 63.1154C65.0301 63.1002 65.0039 63.0917 64.9769 63.0911C64.3561 63.0336 63.8905 63.2829 63.3385 63.5369Z" fill="black"/>
<path d="M37.2567 78.9662C34.0759 78.9662 31.063 79.5414 27.8966 78.8639C25.3189 78.3127 23.2101 76.7755 21.5268 74.8037C19.5172 72.4452 18.3268 69.3852 17.0051 66.6257C15.4515 63.3851 14.1027 60.0472 12.4563 56.8546C12.4371 56.8146 12.3747 56.8434 12.3875 56.8849C13.4499 60.6256 15.0531 64.1969 16.7075 67.7122C18.1156 70.7035 19.4276 73.7251 21.6788 76.1986C25.6789 80.6024 31.9575 80.5513 37.2856 79.1771C37.3112 79.1707 37.3336 79.1551 37.3484 79.1333C37.3633 79.1114 37.3695 79.0849 37.3659 79.0587C37.3624 79.0326 37.3492 79.0087 37.3291 78.9916C37.3089 78.9745 37.2832 78.9655 37.2567 78.9662Z" fill="black"/>
<path d="M40.4664 78.1433C39.8168 78.3542 39.1319 78.4389 38.5111 78.7249C38.4992 78.7324 38.4896 78.7431 38.4836 78.7559C38.4776 78.7686 38.4753 78.7829 38.4772 78.7968C38.4791 78.8108 38.4849 78.824 38.494 78.8347C38.5032 78.8455 38.5152 78.8534 38.5287 78.8575C39.7079 79.1132 41.3176 78.514 42.2856 77.8524C42.3464 77.8109 42.332 77.6927 42.2456 77.7022C41.6216 77.7534 41.0584 77.9515 40.4664 78.1433Z" fill="black"/>
<path d="M79.7294 44.3782C79.3582 37.6543 78.899 30.6811 77.3422 24.109C77.3198 24.0115 77.1598 24.0307 77.1694 24.1314C78.427 37.0743 79.947 49.9229 79.1262 62.9601C79.1262 63.024 79.2286 63.04 79.2398 62.9745C80.259 56.8625 80.0686 50.5461 79.7294 44.3782Z" fill="black"/>
<path d="M61.1944 39.2506C61.2195 39.2497 61.2436 39.2409 61.2632 39.2253C61.2828 39.2097 61.2969 39.1882 61.3033 39.1641C61.3098 39.1399 61.3083 39.1143 61.299 39.091C61.2898 39.0677 61.2733 39.0481 61.252 39.0349C58.2632 37.3922 56.2807 35.8263 54.4647 32.8494C53.0087 30.4526 52.0422 27.6243 50.239 25.4688C50.1958 25.416 50.0966 25.4688 50.1238 25.5359C51.8614 29.7431 55.3079 39.6628 61.1944 39.2506Z" fill="black"/>
<path d="M32.9906 47.8185C33.0181 47.8179 33.0444 47.8075 33.0649 47.7892C33.0854 47.771 33.0987 47.746 33.1024 47.7188C33.106 47.6916 33.0998 47.664 33.0849 47.641C33.07 47.6179 33.0473 47.601 33.021 47.5931C29.4737 46.358 27.2129 44.4421 24.9632 41.4636C23.3712 39.356 22.0352 36.7643 19.9615 35.0721C19.9327 35.0481 19.8847 35.0721 19.9071 35.1136C21.6768 37.9051 23.5728 40.719 25.6385 43.2996C27.3649 45.4632 29.9953 48.0262 32.9906 47.8185Z" fill="black"/>
<path d="M17.6678 21.3334C17.677 21.35 17.692 21.3626 17.7099 21.3689C17.7278 21.3751 17.7474 21.3744 17.7648 21.3671C17.7823 21.3598 17.7965 21.3462 17.8046 21.3291C17.8126 21.312 17.8141 21.2924 17.8086 21.2743C16.5654 16.6564 10.9541 13.948 6.5972 16.209C6.5268 16.2458 6.578 16.34 6.6468 16.3289C11.5301 15.482 15.1398 16.984 17.6678 21.3334Z" fill="black"/>
<path d="M3.84851 33.1738C2.98929 32.6417 2.34448 31.8012 1.80527 30.9687C0.910848 29.5881 0.547643 27.9663 0.246837 26.3748C0.240352 26.3589 0.229278 26.3453 0.215029 26.3358C0.200781 26.3262 0.184003 26.3211 0.166835 26.3211C0.149667 26.3211 0.13289 26.3262 0.118641 26.3358C0.104392 26.3453 0.093318 26.3589 0.0868336 26.3748C-0.233173 28.2363 0.434041 30.1042 1.40686 31.6718C2.21648 32.9725 3.88691 34.6391 5.55254 34.3882C5.56802 34.3829 5.58198 34.374 5.59322 34.3621C5.60445 34.3502 5.61263 34.3358 5.61704 34.3201C5.62145 34.3044 5.62196 34.2878 5.61853 34.2718C5.61509 34.2559 5.60783 34.2409 5.59734 34.2284C5.05813 33.7858 4.43092 33.5349 3.84851 33.1738Z" fill="black"/>
<path d="M47.1881 10.1882C48.1721 12.8454 47.9513 15.7488 47.4329 18.4748C47.4121 18.5835 47.5673 18.6666 47.6233 18.5547C49.9017 13.9432 47.6649 3.64479 40.9399 4.3926C40.9216 4.39287 40.9039 4.39969 40.8902 4.41184C40.8764 4.42398 40.8675 4.44063 40.865 4.45878C40.8625 4.47694 40.8665 4.49541 40.8765 4.51083C40.8864 4.52624 40.9016 4.53758 40.9191 4.54281C44.1256 5.4632 46.0072 6.99877 47.1881 10.1882Z" fill="black"/>
<path d="M76.9179 15.0425C76.8667 15.1639 77.0475 15.2151 77.1131 15.1256C79.4267 12.0305 79.0203 7.86957 77.3083 4.59549C75.9866 2.06603 72.8394 -0.597649 69.7961 0.121402C69.7813 0.12645 69.7683 0.136015 69.7592 0.148768C69.75 0.161521 69.7451 0.176812 69.7451 0.192499C69.7451 0.208186 69.75 0.223497 69.7592 0.23625C69.7683 0.249003 69.7813 0.258568 69.7961 0.263617C77.1179 1.57868 79.6011 8.53589 76.9179 15.0425Z" fill="black"/>
<path d="M31.9522 21.3622C31.9667 21.3707 31.9837 21.3741 32.0004 21.372C32.0171 21.3699 32.0327 21.3624 32.0447 21.3506C32.0567 21.3388 32.0645 21.3233 32.0669 21.3067C32.0692 21.29 32.066 21.273 32.0578 21.2583C31.1249 19.9001 30.1489 18.6857 29.6049 17.1038C29.0769 15.5699 29.2257 13.8969 28.7265 12.3741C28.7238 12.3642 28.718 12.3555 28.7099 12.3493C28.7018 12.3431 28.6919 12.3398 28.6817 12.3398C28.6715 12.3398 28.6616 12.3431 28.6535 12.3493C28.6454 12.3555 28.6395 12.3642 28.6369 12.3741C27.9553 15.4836 29.2433 19.6045 31.9522 21.3622Z" fill="black"/>
<path d="M60.1819 11.4265C59.5547 8.23073 60.2731 5.72045 61.9979 3.05836C62.0459 2.98326 61.9547 2.91615 61.8875 2.94651C59.0555 4.23761 58.7643 9.11277 60.0427 11.4872C60.0891 11.5671 60.2011 11.5096 60.1819 11.4265Z" fill="black"/>
</g>
<defs>
<clipPath id="clip0_428_2">
<rect width="80" height="80" fill="white"/>
</clipPath>
</defs>
</svg>
