<svg width="132" height="100" viewBox="0 0 132 100" fill="none" xmlns="http://www.w3.org/2000/svg">
<g clip-path="url(#clip0_426_123)">
<path d="M125.102 16.6536C117.22 6.52687 104.183 4.90389 92.1541 3.73307C76.6264 2.21931 61.004 2.20402 45.5071 4.1197C35.1941 5.39755 22.2254 7.32853 13.7695 13.9493C5.99578 20.0306 5.03643 29.443 5.04963 38.6741C5.03124 38.746 5.01727 38.8189 5.00781 38.8925C5.03422 47.1538 6.94851 55.2272 9.00142 63.1935C10.205 67.8615 12.819 72.5055 16.7026 75.4653C22.342 79.7532 29.0684 81.5116 36.0655 81.9375C42.4156 82.3242 48.3411 82.0642 50.7901 88.8729C52.0223 92.3001 52.755 95.817 54.2028 99.1809C54.6539 100.232 56.1523 100.186 56.8762 99.5238C61.7786 95.0219 63.596 88.1237 69.4313 84.5719C75.3722 80.9611 81.8587 81.0507 88.5213 80.8585C98.7925 80.5461 109.497 79.9323 118.785 75.1486C127.676 70.5614 131.261 61.4592 131.738 51.9943C132.33 40.5483 132.524 26.1839 125.102 16.6536ZM127.01 59.8842C124.233 70.3146 113.953 74.4015 104.269 76.1162C95.1443 77.7327 85.6961 76.4613 76.644 78.1608C72.602 78.9188 67.5522 81.0005 64.5224 83.7877C61.0569 86.9856 59.2416 91.5356 56.2821 95.1748C54.7573 90.6815 54.0026 85.9065 50.8627 82.18C47.208 77.8419 38.6861 78.768 33.7661 78.4666C12.7838 77.2281 8.72639 55.9677 7.91447 38.8816C7.90564 38.8313 7.89313 38.7816 7.87705 38.7331C8.12349 29.5238 9.5581 20.6029 17.9634 15.3604C28.0981 9.02577 42.5499 7.71516 54.1192 6.74967C66.7843 5.70077 79.5218 5.86975 92.1541 7.25426C106.034 8.76365 120.695 10.9983 125.958 25.8104C129.404 35.5155 129.661 49.9301 127.01 59.8842Z" fill="black"/>
<path d="M38.3231 25.6422C36.0194 24.1022 30.8618 24.55 30.4415 25.2053C30.0213 25.8606 31.1237 26.2975 31.6253 26.6557C31.9862 26.9179 31.7772 27.3285 31.0687 27.3962C29.0884 27.5885 28.2479 28.8292 27.4029 30.0699C25.7527 32.4902 22.7382 40.83 23.4577 46.5596C24.2124 52.5797 25.6778 55.9371 27.2951 58.3224C28.9915 60.8213 31.3745 62.7304 35.0359 62.3853C44.4291 61.5116 45.8857 49.3927 45.2674 44.775C43.7734 33.6828 40.9261 27.3897 38.3231 25.6422ZM33.5704 57.8549C31.8805 55.865 31.1501 55.2599 29.9289 48.8488C28.2104 39.7641 31.5241 32.8265 32.8157 30.9065C33.4758 29.9366 34.2085 30.5745 34.378 30.8737C35.3791 32.6627 36.5783 34.2923 37.3374 36.2778C39.6785 42.4487 40.0064 45.6422 39.9976 47.8134C39.98 52.0293 35.9798 60.6946 33.5704 57.8549Z" fill="black"/>
<path d="M73.852 37.6562C73.852 35.4937 73.3987 29.7204 72.5956 28.3202C71.6913 26.7366 67.262 27.3853 66.6349 28.8488C65.9198 30.5133 62.8636 41.4635 62.2079 41.671C61.6138 41.8589 59.222 28.4164 58.8259 27.1363C57.9898 24.4277 53.2459 25.1136 52.258 27.8724C51.7628 29.303 51.4119 30.7789 51.2106 32.2783C50.6671 36.9943 49.7518 42.0205 49.0235 46.7126C48.3216 51.2451 47.8023 56.35 47.5141 60.9109C47.3534 63.4644 51.7475 63.0603 52.2272 60.5898C52.5044 59.1656 55.2812 38.8729 56.7004 39.2355C57.2219 39.3709 58.5245 51.6492 58.6081 52.4246C58.8963 55.166 59.5235 56.5749 61.2309 56.588C63.6513 56.6011 64.3818 55.592 64.8043 54.0105C65.2267 52.429 67.0882 41.8851 67.7153 41.6623C69.0355 46.54 68.8155 56.9135 69.8078 61.8305C70.2127 63.8467 71.4801 65.8235 73.643 65.8017C76.0985 65.7776 76.0985 64.668 75.8235 62.2193C75.1568 56.28 73.8432 43.08 73.852 37.6562Z" fill="black"/>
<path d="M96.2687 41.5159C94.4908 41.5028 93.7933 41.4242 92.033 41.4941C89.3134 41.6055 88.4025 41.6055 88.6225 43.0887C88.8118 44.3534 89.3134 44.1568 92.3499 43.9624C95.7582 43.7309 94.5502 49.1044 94.262 50.5723C92.9902 57.2739 92.5193 60.0961 87.8128 59.6592C85.0756 59.4058 84.0722 48.235 84.0084 44.6723C83.8368 35.7558 86.7698 31.2909 88.9657 28.578C89.4784 27.9445 92.9264 26.1752 93.4478 29.6134C93.7119 32.2805 93.0738 36.3172 95.2345 36.505C96.8957 36.647 98.4712 36.9288 98.7441 35.4609C99.0367 33.7901 99.0143 32.0799 98.678 30.4172C98.1654 27.7283 93.8373 20.5068 86.4288 25.2818C84.5057 26.5225 83.3285 28.3683 82.1667 30.1027C79.3833 34.2529 77.3832 42.4814 78.908 52.4552C79.0203 53.602 79.9642 59.2944 82.62 61.3914C85.5795 63.7287 89.0626 64.2311 92.6976 63.519C94.8055 63.0996 96.0729 61.896 97.0982 60.3757C98.7001 58.0166 99.2325 55.3036 99.853 52.5928C100.487 49.8362 100.104 46.9987 100.148 44.2136C100.172 42.9401 100.535 41.5421 96.2687 41.5159Z" fill="black"/>
<path d="M108.49 53.9908C110.595 53.0013 112.045 34.6724 111.141 28.4862C110.749 25.118 110.747 23.0952 106.487 24.2813C104.016 24.9716 103.356 28.152 103.213 30.2315C102.773 36.6405 102.054 43.1761 103.748 49.6046C104.36 51.9288 104.835 55.7056 108.49 53.9908Z" fill="black"/>
<path d="M103.026 59.2967C102.196 61.824 110.067 63.1171 111.007 60.2185C112.285 56.3106 103.013 54.8056 103.026 59.2967Z" fill="black"/>
<path d="M110.1 16.114C110.278 16.1512 110.415 15.8956 110.232 15.8082C102.001 12.3132 92.7748 11.5509 83.925 10.9611C74.0368 10.3058 62.617 9.7903 53.0082 12.6649C52.9757 12.6763 52.9481 12.6984 52.9302 12.7276C52.9122 12.7568 52.9049 12.7912 52.9096 12.8251C52.9142 12.859 52.9305 12.8903 52.9557 12.9136C52.9809 12.937 53.0134 12.951 53.0478 12.9533C61.9899 12.7348 70.789 11.765 79.773 12.0249C90.0441 12.3176 100.071 14.0039 110.1 16.114Z" fill="black"/>
<path d="M114.307 17.7479C115.007 17.9664 115.797 18.554 116.536 18.318C116.601 18.2997 116.655 18.2569 116.689 18.199C116.722 18.141 116.731 18.0724 116.714 18.0079C116.43 17.2674 115.561 17.1188 114.861 16.8917C114.069 16.6383 113.178 16.3718 112.342 16.4985C112.107 16.5334 112.137 16.8327 112.283 16.9354C112.859 17.3679 113.629 17.5317 114.307 17.7479Z" fill="black"/>
<path d="M21.3655 66.7191C16.4741 61.2451 15.1187 53.7789 12.2759 47.2783C12.2429 47.1997 12.1175 47.2433 12.1197 47.322C12.3947 59.0673 20.8792 74.5959 34.2066 74.395C34.387 74.395 34.4816 74.1285 34.3034 74.0433C29.5749 71.7737 25.007 70.7908 21.3655 66.7191Z" fill="black"/>
<path d="M38.7631 74.2857C37.971 74.3032 37.1547 74.2398 36.444 74.6418C36.4048 74.6656 36.3725 74.699 36.3501 74.7388C36.3277 74.7785 36.3159 74.8234 36.3159 74.8689C36.3159 74.9145 36.3277 74.9593 36.3501 74.9991C36.3725 75.0389 36.4048 75.0723 36.444 75.0961C37.0711 75.45 37.751 75.4303 38.4529 75.4456C39.2912 75.4631 40.0261 75.5308 40.7456 75.0502C40.7756 75.0303 40.8001 75.0033 40.8171 74.9717C40.8341 74.94 40.8429 74.9048 40.8429 74.8689C40.8429 74.8331 40.8341 74.7978 40.8171 74.7662C40.8001 74.7346 40.7756 74.7076 40.7456 74.6876C40.1119 74.2639 39.5135 74.2704 38.7631 74.2857Z" fill="black"/>
<path d="M123.496 58.6894C121.995 61.3412 120.871 63.2438 118.254 65.024C116.039 66.5356 113.475 67.4268 111.268 68.9559C111.222 68.9877 111.189 69.0343 111.173 69.0878C111.158 69.1413 111.161 69.1985 111.183 69.2498C111.205 69.301 111.244 69.3432 111.294 69.3693C111.343 69.3953 111.4 69.4036 111.455 69.3927C115.819 68.6937 124.673 64.266 123.669 58.7178C123.665 58.7 123.655 58.684 123.641 58.6716C123.627 58.6592 123.61 58.6511 123.592 58.6481C123.573 58.6451 123.555 58.6474 123.538 58.6547C123.521 58.662 123.506 58.6741 123.496 58.6894Z" fill="black"/>
<path d="M113.277 80.7864C104.555 83.353 95.3645 82.7873 86.385 83.3508C79.6608 83.7746 70.2962 84.8209 66.9759 91.6317C66.9385 91.7082 67.0397 91.8021 67.0991 91.7278C78.1733 78.0516 99.2921 87.9838 113.383 81.0354C113.524 80.9655 113.425 80.7427 113.277 80.7864Z" fill="black"/>
<path d="M118.435 78.1171C117.313 78.6632 116.362 79.5806 115.084 79.7991C114.945 79.8231 114.993 80.0175 115.114 80.0175C115.361 80.0661 115.613 80.0786 115.863 80.0546C116.208 79.9934 116.544 79.8845 116.859 79.7313C117.546 79.419 118.25 78.9646 118.62 78.2875C118.632 78.2622 118.636 78.2338 118.63 78.2063C118.625 78.1788 118.611 78.1537 118.59 78.1346C118.57 78.1156 118.544 78.1036 118.516 78.1004C118.488 78.0973 118.459 78.1031 118.435 78.1171Z" fill="black"/>
<path d="M3.1178 22.8025C3.12247 22.7912 3.12244 22.7786 3.1177 22.7673C3.11295 22.756 3.10388 22.7471 3.0925 22.7425C3.08112 22.7378 3.06834 22.7379 3.05699 22.7426C3.04565 22.7473 3.03666 22.7563 3.03199 22.7676C-0.708574 28.9537 -0.242111 37.3919 0.576412 44.2573C1.43234 51.4438 3.15961 58.8641 6.03104 65.5199C6.07725 65.6269 6.25106 65.5505 6.21586 65.4434C4.40719 58.3858 2.22447 51.5116 1.25193 44.2551C0.252472 37.0557 0.890033 29.7254 3.1178 22.8025Z" fill="black"/>
<path d="M114.547 3.81827C119.738 6.11184 123.04 9.8602 126.845 13.8248C126.983 13.9712 127.186 13.7855 127.109 13.6217C123.018 4.94103 109.165 -1.1861 99.8599 0.192228C99.8446 0.196895 99.8313 0.206308 99.8217 0.219086C99.8122 0.231864 99.8071 0.247335 99.8071 0.263222C99.8071 0.279109 99.8122 0.294574 99.8217 0.307352C99.8313 0.32013 99.8446 0.32955 99.8599 0.334217C104.993 1.25165 109.7 1.67759 114.547 3.81827Z" fill="black"/>
</g>
<defs>
<clipPath id="clip0_426_123">
<rect width="132" height="100" fill="white"/>
</clipPath>
</defs>
</svg>
