<svg width="42" height="112" viewBox="0 0 42 112" fill="none" xmlns="http://www.w3.org/2000/svg">
<g clip-path="url(#clip0_3178_10)">
<path d="M22.6595 0.0328506C16.7363 2.24431 10.7437 4.75063 7.03187 10.1535C3.71902 14.984 2.65232 21.02 3.11195 26.7785C3.61495 33.0486 6.22534 39.0413 9.8504 44.1319C11.715 46.751 13.831 49.1706 16.1292 51.4168C17.274 52.5268 18.4621 53.6022 19.6762 54.6342C20.8903 55.6662 22.1218 56.7156 23.6308 57.2706C24.923 57.7389 26.432 57.6782 27.5854 56.8977C28.8082 56.0738 29.1898 54.5735 29.0944 53.1686C28.8776 49.9945 26.7529 46.9071 24.5935 44.6783C20.422 40.3595 13.3454 37.3154 7.56956 40.2727C1.79375 43.23 0.102634 50.4021 0.657665 56.4728C1.2127 62.5434 3.54557 69.2299 6.31206 74.9363C11.5589 85.7681 19.6068 95.247 29.6408 101.933C30.8809 102.766 32.1558 103.538 33.4566 104.266C34.9483 105.108 34.558 101.482 33.5347 100.884C24.4287 95.5852 16.6756 88.2571 11.0645 79.3158C8.29804 74.9016 6.04322 70.1491 4.49086 65.1798C2.80842 59.8203 1.42083 53.6889 4.17865 48.4421C5.41881 46.0832 7.43947 44.1233 10.0065 43.2907C12.5735 42.4582 15.5915 42.727 18.2019 43.7157C20.8123 44.7043 23.0324 46.3608 24.7929 48.4248C25.5474 49.3094 26.2325 50.2893 26.7442 51.3387C26.9784 51.8244 27.2125 52.2666 26.9523 52.7783C26.6488 53.3854 25.9724 53.7063 25.3393 53.8537C22.7202 54.4521 20.3093 51.7723 18.5488 50.1939C16.4327 48.2947 14.4381 46.2567 12.6256 44.0626C9.30404 40.0386 6.54622 35.3208 5.50553 30.1521C4.41281 24.7318 5.22802 18.8433 8.0899 14.0908C11.5068 8.40171 17.6642 5.83468 23.5961 3.58853C24.8276 3.12022 23.7956 -0.383424 22.6422 0.041523V0.0328506H22.6595Z" fill="black"/>
<path d="M28.5019 92.2645L34.7373 100.798L37.738 104.909C38.5705 106.054 39.75 107.268 40.0448 108.69L40.2443 106.747C38.9608 107.597 37.1656 107.354 35.7173 107.259C34.0782 107.146 32.4391 106.964 30.8001 106.791C27.5132 106.444 24.0443 106.01 20.7574 106.6C19.5173 106.825 20.4279 110.216 21.7114 110.147C25.3191 109.948 28.8141 110.199 32.3958 110.581C34.1563 110.763 35.9168 110.954 37.6946 111.006C39.1429 111.049 40.4438 110.971 41.6839 110.156C42.2043 109.809 41.9788 108.681 41.8834 108.213C41.5191 106.453 40.5478 104.996 39.4985 103.565C38.345 101.986 37.1916 100.408 36.0382 98.8208L29.1089 89.3419C28.632 88.6915 27.9815 89.021 27.8168 89.6888C27.5999 90.5821 27.9902 91.5621 28.5106 92.2732L28.5019 92.2645Z" fill="black"/>
</g>
<defs>
<clipPath id="clip0_3178_10">
<rect width="111.015" height="41.4367" fill="white" transform="matrix(0 1 -1 0 42 0)"/>
</clipPath>
</defs>
</svg>
