<svg width="108" height="108" viewBox="0 0 108 108" fill="none" xmlns="http://www.w3.org/2000/svg">
<mask id="mask0_337_12153" style="mask-type:luminance" maskUnits="userSpaceOnUse" x="0" y="0" width="108" height="108">
<path d="M72.378 0.5001L0.5 35.6221L35.622 107.5L107.5 72.3781L72.378 0.5001Z" fill="white"/>
</mask>
<g mask="url(#mask0_337_12153)">
<path d="M73.8687 17.8585C77.4098 10.8444 67.8069 1.76443 61.3133 8.04617C55.7239 13.445 61.1215 21.368 67.2452 21.6694C69.9125 29.4131 75.6995 37.6775 75.4654 45.9781C75.3205 51.0571 61.1764 42.389 59.8038 41.4823C56.1756 39.083 52.7796 36.3496 49.1739 33.9196C50.8313 27.2053 42.1018 19.7562 36.0595 25.5986C30.0462 31.4126 36.7538 40.1397 43.3943 39.1517C43.4056 39.2152 43.4235 39.2774 43.4476 39.3373C47.3782 46.5722 52.6668 53.5613 54.3278 61.7789C56.9311 74.6579 33.4171 60.4917 28.2416 57.6301C30.5435 50.7841 21.4905 42.7533 15.2815 48.7573C9.57718 54.2744 15.3246 62.4177 21.6011 62.3866C21.6116 62.4118 21.6235 62.4362 21.6369 62.4598C26.177 69.0252 32.2424 74.6887 38.1604 79.9956C42.9733 84.3166 49.1276 90.4133 55.4113 92.4488C58.5042 93.4504 62.3647 91.4414 65.0196 90.096C69.9285 87.6049 74.4192 84.1853 78.6424 80.6883C85.3399 75.141 95.0581 66.9048 96.5338 57.7485C96.8474 55.7991 95.8912 53.9917 95.1704 52.2506C93.4123 48.0038 91.2124 43.939 88.9525 39.9445C84.5705 32.1975 79.5687 24.7054 73.8687 17.8585ZM62.482 10.8097C65.8894 4.52074 75.6544 12.5292 70.9074 17.7458C69.1296 19.3738 67.0208 19.5702 64.8166 18.6927C61.3374 17.3126 60.8147 13.8777 62.482 10.8097ZM37.2274 28.3714C40.6349 22.0825 50.4027 30.0931 45.6535 35.3089C43.8751 36.9356 41.767 37.1333 39.5635 36.2537C36.0843 34.8664 35.5632 31.4308 37.2274 28.3714ZM16.453 51.5265C19.8619 45.2368 29.6283 53.2481 24.8798 58.4619C23.1028 60.0914 20.9926 60.2884 18.7898 59.4103C15.3114 58.0208 14.7887 54.5859 16.4466 51.5207L16.453 51.5265ZM93.8687 57.5498C93.5512 61.2369 90.3309 64.8878 88.1033 67.6177C84.7831 71.6872 80.8736 75.2977 76.8697 78.6823C73.044 81.9139 68.9506 84.8638 64.5723 87.3037C61.6615 88.9199 57.968 90.979 54.7875 89.186C42.8503 82.4613 32.9392 72.1714 23.9301 61.9814C24.7951 61.6699 25.5975 61.2062 26.2991 60.6121C26.4023 60.5497 26.4962 60.4733 26.5781 60.3851C26.6694 60.3038 26.7482 60.2096 26.8119 60.1054C26.9727 59.9167 27.1254 59.7264 27.2611 59.5302C33.1942 63.7823 52.4996 76.3218 56.5702 65.9669C58.2057 61.81 55.2641 56.0341 53.5545 52.3895C51.2806 47.5464 48.4608 42.9309 45.4344 38.5194C46.0215 38.2336 46.5715 37.8771 47.0722 37.4578C47.1754 37.3944 47.2695 37.3173 47.3519 37.2286C47.4427 37.1469 47.5214 37.0527 47.5857 36.9489C47.8435 36.6496 48.0786 36.3315 48.2888 35.9972C53.4336 39.8857 58.5529 43.8204 64.1905 46.9684C66.9919 48.5322 72.7774 51.9244 76.0186 49.5848C79.0315 47.4012 77.8534 43.0986 77.0261 40.0972C75.2492 33.64 72.2157 27.5265 69.4997 21.4143C70.5374 21.1165 71.4998 20.602 72.3237 19.9045C72.3668 19.8835 72.4037 19.8496 72.4433 19.8177C77.1505 26.2622 81.6597 32.848 85.7283 39.7166C87.6077 42.8887 89.329 46.138 90.9545 49.4537C92.1051 51.8011 94.0937 54.854 93.8687 57.5498Z" fill="black"/>
<path d="M44.0628 33.0025C43.0159 33.4659 42.1933 33.9835 41.0088 33.9612C40.0919 33.9397 39.082 33.0904 38.2215 33.301C38.1918 33.3078 38.1657 33.3255 38.1486 33.3507C38.1315 33.376 38.1246 33.4067 38.1293 33.4368C38.2174 34.6119 40.2785 35.0543 41.2082 35.1638C42.556 35.3162 43.9899 34.6938 44.5756 33.4579C44.7224 33.1425 44.3278 32.8853 44.0628 33.0025Z" fill="black"/>
<path d="M24.1532 57.035C24.1619 57.0094 24.1646 56.982 24.1611 56.9552C24.1575 56.9284 24.148 56.9027 24.133 56.8802C24.118 56.8575 24.0981 56.8388 24.0747 56.8251C24.0513 56.8114 24.0251 56.8033 23.9981 56.8014C22.8745 56.8453 21.8778 57.3714 20.7385 57.3395C19.7451 57.3109 18.8716 56.7151 17.895 56.7975C17.8629 56.8033 17.8344 56.8216 17.8158 56.8484C17.7972 56.8751 17.7899 56.9082 17.7957 56.9403C18.1317 58.0726 19.6102 58.3905 20.65 58.5067C21.947 58.6501 23.5558 58.2943 24.1532 57.035Z" fill="black"/>
<path d="M69.5165 15.9534C68.459 16.0487 67.5328 16.4746 66.4464 16.3652C65.2586 16.2449 64.5758 15.3977 63.5613 14.9579C63.5218 14.945 63.4797 14.9424 63.4389 14.9506C63.3982 14.9587 63.3603 14.9773 63.3289 15.0044C63.2975 15.0316 63.2737 15.0665 63.2598 15.1056C63.2459 15.1447 63.2424 15.1867 63.2496 15.2276C63.4274 16.4443 65.019 17.2086 66.098 17.4123C67.3762 17.6556 69.0609 17.5757 69.7506 16.3086C69.7747 16.2706 69.7874 16.2265 69.787 16.1816C69.7866 16.1366 69.7732 16.0929 69.7485 16.0553C69.7238 16.0179 69.6887 15.9883 69.6476 15.9702C69.6065 15.9521 69.561 15.9463 69.5165 15.9534Z" fill="black"/>
<path d="M83.2955 67.4576C79.1431 71.0195 75.1036 74.6882 70.8361 78.1163C65.9764 82.0202 60.7623 86.7876 54.1859 86.2521C54.0572 86.2402 54.0362 86.4123 54.1438 86.4611C59.3179 88.7916 63.8085 85.2333 67.9133 82.2921C73.6835 78.16 79.3982 73.4986 83.6558 67.7759C83.8176 67.5457 83.4974 67.2841 83.2955 67.4576Z" fill="black"/>
<path d="M85.3022 64.9012C84.9989 65.2717 84.5597 65.714 84.5705 66.228C84.5693 66.2432 84.5717 66.2584 84.5774 66.2724C84.583 66.2865 84.5919 66.299 84.6032 66.3091C84.6145 66.3193 84.628 66.3266 84.6426 66.3307C84.6571 66.3348 84.6725 66.3355 84.6875 66.3327C85.1788 66.2083 85.516 65.7286 85.8421 65.3719C86.255 64.923 86.6426 64.5647 86.7695 63.9495C86.7776 63.9238 86.7781 63.8963 86.7709 63.8704C86.7638 63.8444 86.7491 63.8211 86.729 63.8032C86.7087 63.7854 86.6838 63.7739 86.6571 63.77C86.6304 63.7661 86.6031 63.77 86.5786 63.7813C85.9956 64.0022 85.6867 64.4306 85.3022 64.9012Z" fill="black"/>
<path d="M68.6424 90.2145C65.7845 91.6109 63.33 93.4505 60.1877 94.2319C57.6297 94.8683 55.0601 94.413 52.682 93.3804C49.841 92.1436 47.4281 89.9169 45.0291 88.0178C42.2105 85.7883 39.5332 83.3814 36.6523 81.2358C36.6175 81.2082 36.5741 81.2615 36.6038 81.2932C39.2006 84.1877 42.2089 86.6926 45.2387 89.1247C47.8171 91.1941 50.3224 93.3329 53.431 94.567C58.9584 96.7675 64.5771 93.9651 68.761 90.3913C68.7812 90.3743 68.7944 90.3505 68.7982 90.3244C68.8019 90.2982 68.7959 90.2716 68.7811 90.2497C68.7665 90.2277 68.7442 90.2121 68.7186 90.2055C68.693 90.199 68.6659 90.2022 68.6424 90.2145Z" fill="black"/>
<path d="M71.1648 88.0659C70.6738 88.5406 70.0956 88.9174 69.6634 89.4469C69.656 89.4589 69.652 89.4727 69.6523 89.4868C69.6525 89.5009 69.6567 89.5147 69.6645 89.5264C69.6723 89.5381 69.6833 89.5475 69.6962 89.5531C69.7092 89.5587 69.7235 89.5606 69.7374 89.5583C70.9091 89.2704 72.0924 88.0253 72.6716 87.0059C72.708 86.9419 72.6432 86.842 72.5697 86.8885C72.0316 87.2085 71.6125 87.6337 71.1648 88.0659Z" fill="black"/>
<path d="M91.6183 40.4914C88.3329 34.6131 84.8589 28.5495 80.5748 23.3281C80.5119 23.2503 80.3766 23.3378 80.4294 23.4241C87.2416 34.5008 94.2481 45.3777 99.2343 57.4516C99.2623 57.509 99.3614 57.4784 99.3427 57.4147C97.5751 51.4757 94.631 45.8842 91.6183 40.4914Z" fill="black"/>
<path d="M72.714 44.0218C72.7361 44.01 72.7539 43.9915 72.7647 43.9689C72.7754 43.9463 72.7787 43.9208 72.7738 43.8963C72.769 43.8717 72.7565 43.8493 72.7379 43.8325C72.7194 43.8156 72.6959 43.8052 72.671 43.8027C69.2645 43.639 66.7958 43.1024 63.8572 41.225C61.4968 39.7108 59.3867 37.5939 56.8203 36.4489C56.7583 36.4204 56.6923 36.5114 56.7462 36.5598C60.1545 39.577 67.6061 46.9765 72.714 44.0218Z" fill="black"/>
<path d="M51.135 64.1021C51.1594 64.0895 51.1785 64.0686 51.1889 64.0431C51.1993 64.0178 51.2003 63.9895 51.1917 63.9634C51.1829 63.9374 51.1653 63.9153 51.1418 63.9012C51.1182 63.887 51.0904 63.8818 51.0633 63.8862C47.3339 64.3339 44.4615 63.605 41.1326 61.9166C38.7769 60.7219 36.4388 58.9798 33.8327 58.3699C33.7963 58.3609 33.7637 58.4036 33.802 58.431C36.6176 60.1622 39.5565 61.858 42.5454 63.2697C45.0464 64.4557 48.535 65.6037 51.135 64.1021Z" fill="black"/>
<path d="M25.7399 47.0328C25.7555 47.0437 25.7745 47.0485 25.7933 47.0463C25.8121 47.044 25.8294 47.0347 25.8419 47.0205C25.8544 47.0063 25.8612 46.9878 25.8609 46.9689C25.8606 46.95 25.8534 46.9318 25.8405 46.9179C22.6961 43.3147 16.4655 43.3447 13.5435 47.289C13.4964 47.3529 13.5838 47.4151 13.6407 47.3749C17.6564 44.4701 21.5591 44.2349 25.7399 47.0328Z" fill="black"/>
<path d="M18.5221 63.7383C17.5165 63.6374 16.5681 63.1653 15.7182 62.6541C14.3084 61.8063 13.2701 60.5086 12.3011 59.2108C12.2883 59.1993 12.2724 59.192 12.2554 59.1897C12.2384 59.1873 12.2211 59.1901 12.2057 59.1976C12.1902 59.2052 12.1774 59.2171 12.1688 59.232C12.1602 59.2468 12.1562 59.2639 12.1574 59.281C12.6871 61.094 14.1066 62.4793 15.6689 63.4607C16.9674 64.2739 19.1999 65.0379 20.5862 64.0813C20.5978 64.0697 20.6065 64.0556 20.6113 64.04C20.6162 64.0243 20.6172 64.0078 20.6143 63.9918C20.6114 63.9757 20.6045 63.9606 20.5944 63.9477C20.5844 63.9349 20.5713 63.9247 20.5563 63.918C19.8776 63.7571 19.2039 63.807 18.5221 63.7383Z" fill="black"/>
<path d="M47.3701 24.0591C49.4208 26.0145 50.4971 28.7201 51.2281 31.3969C51.2571 31.5037 51.4331 31.5103 51.4342 31.3851C51.4568 26.2416 44.9258 17.9707 39.2119 21.595C39.1955 21.6033 39.1826 21.6172 39.1757 21.6341C39.1686 21.6511 39.1679 21.67 39.1736 21.6874C39.1794 21.7048 39.1911 21.7196 39.2068 21.7291C39.2225 21.7386 39.2411 21.7421 39.2591 21.7391C42.5442 21.1583 44.9089 21.7119 47.3701 24.0591Z" fill="black"/>
<path d="M76.2132 15.3685C76.2205 15.5 76.4054 15.4667 76.4251 15.3575C77.1449 11.5609 74.953 8.00079 71.9775 5.81072C69.6794 4.11832 65.6823 3.10677 63.2637 5.08891C63.2526 5.09994 63.2451 5.11424 63.2426 5.12969C63.2399 5.14519 63.2422 5.16108 63.2491 5.17517C63.256 5.18927 63.2671 5.20087 63.281 5.20829C63.2947 5.21576 63.3106 5.21864 63.3261 5.21668C70.4819 3.18378 75.7674 8.34448 76.2132 15.3685Z" fill="black"/>
<path d="M38.5867 40.7875C38.6035 40.7888 38.6202 40.7844 38.6343 40.7752C38.6484 40.7659 38.6591 40.7524 38.6647 40.7365C38.6703 40.7206 38.6705 40.7033 38.6654 40.6873C38.6601 40.6713 38.6498 40.6574 38.636 40.6478C37.2015 39.8371 35.7914 39.1744 34.6082 37.992C33.4604 36.8456 32.8596 35.2771 31.7425 34.1281C31.7357 34.1204 31.7267 34.1151 31.7167 34.1131C31.7067 34.1111 31.6964 34.1125 31.6872 34.1169C31.678 34.1214 31.6706 34.1287 31.666 34.1379C31.6615 34.147 31.66 34.1574 31.662 34.1674C32.4148 37.2605 35.3812 40.3975 38.5867 40.7875Z" fill="black"/>
<path d="M59.5884 19.4672C57.6218 16.8712 57.1652 14.3004 57.5462 11.1514C57.5563 11.0628 57.4449 11.0425 57.3979 11.0993C55.4202 13.5027 57.2989 18.0107 59.49 19.5828C59.5667 19.6343 59.6421 19.5334 59.5884 19.4672Z" fill="black"/>
</g>
</svg>
