<svg width="126" height="117" viewBox="0 0 126 117" fill="none" xmlns="http://www.w3.org/2000/svg">
<mask id="mask0_326_6766" style="mask-type:luminance" maskUnits="userSpaceOnUse" x="0" y="0" width="126" height="117">
<path d="M125.038 37.1105L31.8953 0.718262L0.961861 79.8897L94.1048 116.282L125.038 37.1105Z" fill="white"/>
</mask>
<g mask="url(#mask0_326_6766)">
<path d="M30.9443 45.4842C30.8076 45.8598 30.8149 46.2736 30.9649 46.6482C31.0371 46.8204 31.1432 46.9773 31.277 47.1096C31.4109 47.2418 31.5697 47.3469 31.7444 47.4185C32.0959 47.5786 32.495 47.5986 32.857 47.4743C33.2417 47.3356 33.5627 47.0677 33.7644 46.7173C33.8681 46.5371 33.957 46.3488 34.0298 46.1541C34.1949 45.654 34.3442 45.1944 34.4779 44.7751C34.5214 44.5861 34.6564 44.106 34.8828 43.3349C35.1067 42.5629 35.2827 41.9796 35.4064 41.5855C35.5302 41.1913 35.6598 40.937 35.7449 40.8962C35.83 40.8553 36.0873 40.8881 36.5047 40.9813C36.7855 41.0331 37.1883 41.1249 37.7131 41.2565L38.7879 41.5198C38.9554 41.5557 39.1873 41.6039 39.4837 41.6584C39.78 41.7127 40.0447 41.7654 40.2866 41.8153C40.5151 41.8624 40.7396 41.9281 40.9575 42.0118C41.3605 42.1418 41.501 42.4021 41.3764 42.798C41.252 43.194 41.0661 43.6697 40.8681 44.3313C40.6702 44.9928 40.5249 45.442 40.4345 45.6734C39.8544 47.4623 39.5155 48.4901 39.4179 48.7399C39.3383 48.9217 39.2971 49.1181 39.297 49.3171C39.2969 49.5161 39.3378 49.7136 39.4171 49.8977C39.5689 50.2437 39.8438 50.5244 40.1895 50.6864C40.3589 50.7699 40.5438 50.8176 40.7322 50.8263C40.9206 50.8349 41.1081 50.8044 41.2826 50.7366C41.6581 50.5954 41.9744 50.3359 42.1828 49.998C42.3891 49.6222 42.5712 49.2337 42.728 48.8349C42.8525 48.4389 43.0315 47.8645 43.2651 47.1117C43.4997 46.3566 43.6438 45.9048 43.7033 45.7523C43.9636 44.9352 44.2759 43.9238 44.6403 42.7182C45.0048 41.5127 45.323 40.4677 45.5951 39.5833C45.8625 38.6997 46.1816 37.6987 46.5523 36.5804C46.923 35.4619 47.291 34.4427 47.6562 33.5225C48.0127 32.5327 48.7072 30.5231 49.7395 27.4939C49.9984 26.6763 50.1006 26.0662 50.0475 25.6601C50.0099 25.3581 49.8693 25.0761 49.6488 24.8606C49.4282 24.6452 49.1408 24.5091 48.8339 24.4746C48.17 24.393 47.7073 24.6865 47.4461 25.3551C47.3926 25.4115 47.3574 25.4825 47.3449 25.559C47.3209 25.6534 47.3054 25.7151 47.2961 25.739L45.7374 29.7284C44.9997 31.6166 44.3846 33.2499 43.892 34.6284C43.3996 36.0069 42.9676 37.3632 42.5962 38.6973C42.5885 38.7736 42.5639 38.847 42.5244 38.9125C42.4847 38.9781 42.431 39.0342 42.3668 39.0768C42.3026 39.1194 42.2296 39.1477 42.1527 39.1594C42.0759 39.1713 41.9972 39.1664 41.9219 39.1453C41.5094 39.0454 41.0263 38.9435 40.4743 38.8463L38.7996 38.5477C38.2345 38.4454 37.7455 38.3476 37.3331 38.2415C36.9207 38.1355 36.716 38.0956 36.6765 38.0083C36.6372 37.9209 36.6775 37.6741 36.8019 37.2782L36.9821 36.8171C37.1328 36.4314 37.8301 34.6079 39.0741 31.3466C40.318 28.0853 41.2324 25.5921 41.817 23.867C42.0603 23.1618 42.1804 22.7049 42.172 22.4942C42.183 22.228 42.1093 21.964 41.9614 21.7389C41.8135 21.5138 41.5987 21.3387 41.3468 21.238C41.0782 21.1345 40.7853 21.113 40.5065 21.1765C40.2223 21.2306 39.9689 21.3842 39.793 21.6091C39.6104 21.8239 39.4682 22.0695 39.3735 22.3344L35.8799 31.2757C34.3033 34.8532 32.9715 38.5333 31.8934 42.2918C31.5468 43.6102 31.2305 44.6743 30.9443 45.4842Z" fill="black"/>
<path d="M45.9052 51.9902C46.2341 52.2681 46.6082 52.4894 47.011 52.6444C47.4341 52.8382 47.8733 52.9949 48.3233 53.1128C48.8177 53.2466 49.22 53.3509 49.5376 53.4284C49.8552 53.5059 50.3291 53.6148 50.9767 53.7493C51.6243 53.8838 52.0394 53.9718 52.2331 54.0179C52.3784 54.0438 52.5255 54.056 52.6728 54.0542C52.9601 54.0344 53.2343 53.9328 53.4623 53.7618C53.6901 53.5908 53.8619 53.3577 53.9567 53.0908C54.1396 52.5398 53.9875 52.0442 53.5026 51.5817C53.1649 51.2671 52.7344 51.067 52.2755 51.0112C51.9117 50.9304 51.3404 50.811 50.556 50.6505C49.7716 50.4902 49.1683 50.3751 48.7474 50.3017C48.3266 50.2284 48.1422 49.9594 48.2741 49.5389C48.7731 47.9554 49.174 46.6604 49.4765 45.6537C49.5848 45.2218 49.8845 45.0742 50.3777 45.2055C52.2465 45.6547 54.0883 46.211 55.8939 46.8717C56.2997 47.0516 56.7564 47.0793 57.1772 46.9497C57.3683 46.8834 57.542 46.7772 57.6865 46.6382C57.8311 46.4992 57.9431 46.3308 58.0149 46.1443C58.1006 45.9646 58.1448 45.768 58.1444 45.5684C58.1439 45.3688 58.0989 45.1711 58.0124 44.9894C57.7986 44.5852 57.4534 44.2623 57.0328 44.0732C56.7965 43.9809 56.3534 43.8373 55.7034 43.6426C54.7672 43.3361 53.1005 42.9213 50.7032 42.3982C50.6679 42.1784 50.7459 41.8243 50.9368 41.3357C52.1659 38.1124 53.1671 35.5112 53.9402 33.5324C54.2004 32.8664 54.5679 32.0035 55.0423 30.944C55.1628 30.6354 55.2455 30.4242 55.3101 30.314C55.3708 30.2024 55.4696 30.1159 55.5893 30.0695C55.6424 30.043 55.7006 30.0274 55.7603 30.0238C55.8201 30.0202 55.88 30.0286 55.9366 30.0486L56.5647 30.294C57.867 30.8324 59.2373 31.4271 60.6757 32.078C61.0576 32.2734 61.4749 32.391 61.902 32.4238C62.188 32.433 62.4687 32.356 62.7069 32.2031C62.945 32.0502 63.1291 31.8287 63.2345 31.5683C63.5156 30.9963 63.4239 30.4567 62.9596 29.9492C62.7736 29.7283 62.4181 29.5154 61.8932 29.3103L56.0254 27.0176C55.7627 26.9091 55.4883 26.8317 55.2078 26.7871C54.3096 26.614 53.6849 26.9351 53.3383 27.7504C53.1796 28.0737 52.9472 28.5523 52.6378 29.1894C52.3283 29.8265 52.17 30.1542 52.16 30.1799C49.7307 35.1587 47.3691 41.5515 45.0752 49.3581C44.9228 49.8239 44.9208 50.3267 45.0694 50.7977C45.2179 51.2688 45.5098 51.6852 45.9052 51.9902Z" fill="black"/>
<path d="M57.5991 56.0681C57.9746 57.5811 58.9991 58.6335 60.6723 59.2251C61.5693 59.4845 62.0611 59.6195 62.1498 59.6246C63.6514 59.8852 64.7284 59.9531 65.3807 59.8283C65.8302 59.7523 66.2322 59.5129 66.5074 59.157C66.754 58.8376 66.8628 58.4341 66.8105 58.0327C66.6875 57.2415 66.1134 56.8415 65.063 56.8143C64.9919 56.8311 64.9176 56.8325 64.8455 56.8182C64.8169 56.833 64.7857 56.842 64.7534 56.8447C64.7212 56.8473 64.6888 56.8437 64.6578 56.8338C63.7002 56.8225 62.7464 56.689 61.8202 56.4365C61.0552 56.2265 60.6296 55.6897 60.5435 54.8262C60.5038 54.3082 60.6395 53.4579 60.9503 52.2752C61.8199 49.3341 62.8977 46.4593 64.1757 43.6715C64.3019 43.4259 64.8931 42.0288 65.9494 39.4803C67.0056 36.9318 67.8875 35.0251 68.5949 33.7602C68.6822 33.6076 68.7327 33.4369 68.7423 33.2611C68.7572 33.0904 68.7403 32.9181 68.6926 32.7526C68.6447 32.6014 68.5698 32.4596 68.4715 32.3338C68.3724 32.2132 68.2641 32.1001 68.1477 31.9956C67.4905 31.5906 66.8801 31.6781 66.3164 32.2581C66.1405 32.4289 65.9913 32.6245 65.8734 32.8387C65.6394 33.2829 65.2951 33.9318 64.8403 34.7915C63.8954 36.5832 62.3846 39.9449 60.3079 44.8767C59.2375 47.3666 58.3565 49.9337 57.6723 52.5569C57.3608 53.7004 57.3356 54.9051 57.5991 56.0681Z" fill="black"/>
<path d="M69.058 58.8346C69.4357 60.3456 70.461 61.3975 72.1338 61.9905C73.0301 62.2517 73.5207 62.3842 73.6095 62.3892C75.1105 62.651 76.1876 62.719 76.8404 62.593C77.2901 62.5175 77.6923 62.2779 77.967 61.9217C78.2157 61.6032 78.3247 61.199 78.2702 60.7973C78.1539 60.0109 77.5711 59.6054 76.522 59.5808C76.451 59.5976 76.3768 59.5984 76.305 59.5829C76.2764 59.5984 76.2448 59.608 76.212 59.6108C76.1793 59.6136 76.1462 59.6098 76.1148 59.5996C75.4107 59.6208 74.4655 59.4886 73.2791 59.2029C72.5148 58.9911 72.0885 58.4562 72.0024 57.5927C71.9632 57.0734 72.104 56.2266 72.4093 55.0416C73.2799 52.1009 74.3576 49.2262 75.6346 46.438C75.7629 46.1945 76.3544 44.7968 77.4091 42.245C78.4637 39.693 79.3456 37.7863 80.0545 36.5249C80.1416 36.3729 80.1919 36.2027 80.2013 36.0275C80.2168 35.8568 80.2 35.6845 80.1515 35.519C80.1048 35.3674 80.0299 35.2254 79.9305 35.1003C79.8332 34.9764 79.726 34.8602 79.6103 34.7528C78.9507 34.354 78.3405 34.4409 77.7796 35.0136C77.5991 35.1824 77.4457 35.3772 77.3247 35.5916C77.0914 36.034 76.7472 36.6843 76.2924 37.5426C75.3489 39.3377 73.8388 42.6997 71.7618 47.6284C70.6901 50.1179 69.808 52.6844 69.1224 55.3072C68.8125 56.4567 68.7904 57.6669 69.058 58.8346Z" fill="black"/>
<path d="M79.4827 62.4057C79.8222 63.5461 80.4513 64.3325 81.37 64.7649C82.2888 65.1972 83.3005 65.2001 84.4049 64.7735C84.9973 64.5411 85.5573 64.2373 86.0722 63.8688C87.0131 63.1816 87.8604 62.3787 88.5941 61.4794C90.5925 59.148 92.3808 56.1586 93.9585 52.5112C95.0387 49.5881 95.6393 47.0832 95.7603 44.9964C95.8322 43.5735 95.6382 42.3686 95.1781 41.3815C94.8559 40.5879 94.2394 39.9418 93.4549 39.5755C92.6752 39.234 91.7992 39.1849 90.9936 39.4374C90.2462 39.652 89.5445 39.994 88.9198 40.4479C88.0952 41.0491 87.3402 41.7373 86.6679 42.5003C84.6134 44.7462 82.8363 47.5911 81.3367 51.0348C80.2477 53.4496 79.5359 56.017 79.2253 58.651C79.0679 60.1378 79.1537 61.3894 79.4827 62.4057ZM83.8564 53.1859C85.1214 49.9483 86.7398 47.1593 88.7116 44.819C89.3689 44.0487 90.1353 43.3757 90.9878 42.8205C91.5529 42.4802 91.9441 42.3473 92.1717 42.4616C92.3993 42.5759 92.5446 42.9397 92.5979 43.5829C92.7214 44.8715 92.6141 46.1683 92.2809 47.414C91.2448 51.6292 89.3177 55.5706 86.6244 58.9823C86.0016 59.8131 85.2689 60.5576 84.4454 61.1965C84.0898 61.4843 83.6925 61.7185 83.2663 61.8918C82.8651 62.0611 82.5984 61.9421 82.4546 61.5302C82.2686 60.9553 82.1962 60.3519 82.2413 59.7531C82.3071 58.2686 82.6541 56.5693 83.2823 54.6553L83.8564 53.1859Z" fill="black"/>
<path d="M110.295 42.3129C110.202 40.8461 109.878 39.3995 109.334 38.0249C106.856 31.698 98.4767 29.6881 92.7457 27.5209C82.1442 23.4952 71.4851 19.6164 60.7323 15.9888C55.91 14.3608 51.0612 12.8115 46.1607 11.4388C42.2941 10.3514 37.4624 8.67535 33.5157 9.81151C29.5086 10.9749 27.7411 14.5419 25.9286 17.9642C22.5096 24.4195 20.1386 31.5277 18.0092 38.4932C16.6551 42.9267 15.5584 47.2491 17.353 51.7484C17.9299 53.1259 18.8218 54.3571 19.9583 55.345C20.4066 60.3198 23.3085 63.7994 27.874 66.1401C34.1749 69.3704 40.8765 72.029 47.4659 74.665C44.4897 78.5601 41.4246 82.3843 38.3275 86.1961C38.3275 86.1961 38.3218 86.2108 38.3189 86.2182C38.316 86.2255 38.2827 86.2611 38.2652 86.2839C38.2013 86.3725 38.1516 86.4701 38.1175 86.5734C38.111 86.59 38.1046 86.6065 38.0981 86.6231C38.0363 86.8179 38.0256 87.0254 38.0671 87.2267C38.1086 87.428 38.2009 87.6163 38.3354 87.7744C38.3743 87.8323 38.4168 87.8879 38.4629 87.9406C38.4897 87.9659 38.5246 87.9816 38.5521 88.0051C38.6304 88.0792 38.7182 88.1427 38.8133 88.194C38.977 88.2849 39.1623 88.3303 39.349 88.3253C39.5358 88.3203 39.7167 88.2649 39.8725 88.1654C43.3714 86.7096 46.8497 85.2055 50.3072 83.6531C47.5904 87.2493 44.7906 90.7982 41.821 94.1899C40.9622 95.1712 42.2551 96.5741 43.3733 96.1069C52.8033 92.1696 62.1038 87.9552 71.211 83.3561C72.2171 82.8494 74.0767 84.0523 75.1108 84.359C77.9375 85.1988 80.8017 85.8986 83.6744 86.5489C87.8206 87.485 92.2666 88.2567 96.4639 87.4027C103.619 85.9471 106.817 76.3907 108.924 70.6337C112.094 61.9875 117.452 50.3259 110.295 42.3129ZM22.4018 35.0711C24.4455 28.8724 26.7923 22.6228 30.0336 16.9429C33.0618 11.637 37.7386 12.393 43.0798 13.7325C47.3283 14.7997 51.5135 16.1449 55.6815 17.4896C65.5544 20.676 75.3118 24.2131 85.043 27.812C90.295 29.756 95.5965 31.6453 100.766 33.805C109.177 37.3219 107.561 44.9155 105.608 51.6494C103.55 58.7591 101.547 65.8864 97.6116 72.2371C94.7609 76.8397 90.6428 77.2589 85.5498 76.6663C81.8952 76.2419 78.2704 75.3041 74.7177 74.3755C73.0262 73.9263 68.7934 71.6246 67.1294 72.4819C59.7055 76.3181 52.118 79.8701 44.4902 83.3153C48.2399 79.0386 51.6668 74.4433 54.9402 69.8429C55.5087 69.0404 55.2132 67.8557 54.2415 67.4888C48.3267 65.2497 42.457 62.9013 36.6579 60.3773C31.9923 58.3427 26.9272 56.6558 22.8133 53.613C22.6754 53.3682 22.4522 53.1801 22.1857 53.0841C16.959 48.5035 20.6245 40.4551 22.3996 35.0766L22.4018 35.0711ZM36.5448 66.6675C31.596 64.5392 25.9649 62.6969 23.8426 57.9912C25.2893 58.7682 26.7733 59.439 28.1212 60.0376C35.7434 63.4222 43.4489 66.6121 51.2377 69.6073C50.6313 70.4459 50.0268 71.2852 49.4094 72.1132C45.091 70.3623 40.8221 68.5124 36.5426 66.673L36.5448 66.6675ZM103.702 75.4976C102.3 78.589 100.487 82.1677 97.4059 83.9408C94.1267 85.8353 89.3494 84.6505 85.8437 84.0387C79.7514 82.9731 73.8116 78.8295 68.1504 81.6713C61.4462 85.0369 54.6456 88.2232 47.8052 91.3177C50.4639 88.2407 53.0037 85.075 55.4793 81.8249C55.6411 81.6193 55.7423 81.3734 55.7724 81.1137C57.6952 80.2242 59.6292 79.356 61.5412 78.439C63.4532 77.5219 65.2923 76.6145 67.1574 75.6792C69.3262 74.5915 73.342 76.9397 75.7611 77.5841C85.3081 80.1223 94.9203 82.1948 100.68 72.9236C104.504 66.7687 106.441 59.6389 108.417 52.7385C108.973 50.7625 109.552 48.899 109.925 47.0501C111.781 51.0273 110.489 55.0087 109.175 59.549C107.596 64.9849 106.037 70.3506 103.7 75.5031L103.702 75.4976Z" fill="black"/>
<path d="M78.3513 72.7188C83.1452 74.7739 95.0532 76.1747 96.3616 69.1149C96.3977 68.9174 96.1215 68.8391 96.0129 68.9787C91.5624 74.7833 84.6668 72.1292 78.3815 72.4258C78.2185 72.4341 78.2204 72.6613 78.3513 72.7188Z" fill="black"/>
<path d="M39.8044 16.6129C39.9572 16.5648 39.9216 16.3518 39.7963 16.2965C32.793 13.2045 30.1275 21.9125 28.1571 26.4524C28.1391 26.4995 28.139 26.5516 28.157 26.599C28.1748 26.6466 28.2094 26.6864 28.2544 26.7112C28.2994 26.736 28.3517 26.744 28.4017 26.734C28.4518 26.7239 28.4962 26.6963 28.5268 26.6563C30.0229 24.6303 31.1504 22.4413 32.5102 20.3326C34.2877 17.5973 36.9347 17.52 39.8044 16.6129Z" fill="black"/>
<path d="M96.7483 68.1355C97.2486 67.6958 97.509 67.0735 97.8201 66.4986C98.241 65.742 98.457 65.1616 98.4401 64.287C98.4427 64.2466 98.4306 64.2062 98.406 64.1732C98.3814 64.1403 98.3459 64.1167 98.3057 64.1068C98.2655 64.097 98.2234 64.1014 98.1866 64.1194C98.1498 64.1373 98.1208 64.1675 98.1048 64.2047C97.4854 65.3367 96.2935 66.6283 96.3828 67.9927C96.3881 68.0319 96.404 68.0692 96.4289 68.1005C96.4537 68.1317 96.4866 68.156 96.524 68.1706C96.5614 68.1852 96.602 68.1897 96.6415 68.1835C96.6809 68.1774 96.7178 68.1608 96.7483 68.1355Z" fill="black"/>
<path d="M27.9122 28.0526C27.9143 28.0278 27.9098 28.0028 27.8993 27.98C27.8887 27.9573 27.8723 27.9375 27.8518 27.9226C27.8313 27.9078 27.8072 27.8984 27.7821 27.8954C27.757 27.8923 27.7315 27.8957 27.7083 27.9052C27.1628 28.1621 26.9324 28.5526 26.6532 29.0681C26.374 29.5836 25.9505 30.3136 26.3334 30.8931C26.3479 30.9109 26.3658 30.9257 26.386 30.9367C26.4062 30.9478 26.4283 30.9549 26.4512 30.9575C26.474 30.9602 26.4972 30.9583 26.5192 30.9522C26.5412 30.9459 26.5617 30.9355 26.5795 30.9215C27.0323 30.6199 27.1235 29.9993 27.3256 29.5319C27.5675 29.0584 27.7639 28.5632 27.9122 28.0526Z" fill="black"/>
<path d="M111.899 68.5611C111.861 68.6584 112.006 68.7468 112.066 68.6538C116.175 62.3223 120.793 48.0975 113.616 41.9485C113.532 41.8773 113.436 41.9964 113.491 42.0753C119.385 50.5773 114.842 59.9996 111.899 68.5611Z" fill="black"/>
<path d="M111.434 69.6435C111.127 69.9996 110.994 70.4771 110.808 70.9039C110.61 71.3204 110.449 71.7536 110.328 72.1985C110.326 72.2144 110.329 72.2305 110.337 72.2448C110.345 72.259 110.356 72.2707 110.371 72.2786C110.385 72.2865 110.401 72.2899 110.417 72.2887C110.433 72.2875 110.449 72.2817 110.461 72.2719C110.763 71.9916 111.003 71.653 111.166 71.2767C111.389 70.7988 111.67 70.267 111.689 69.7324C111.69 69.7027 111.682 69.6733 111.664 69.6486C111.647 69.6237 111.623 69.605 111.594 69.5951C111.565 69.5851 111.534 69.5844 111.506 69.5931C111.477 69.6018 111.452 69.6195 111.434 69.6435Z" fill="black"/>
<path d="M24.1541 65.9483C21.2109 63.6699 19.8689 60.7002 18.2772 57.5124C18.2727 57.5013 18.2643 57.4922 18.2535 57.4868C18.2427 57.4815 18.2303 57.4803 18.2187 57.4835C18.2072 57.4867 18.1974 57.494 18.1911 57.5041C18.1849 57.5141 18.1827 57.5262 18.1851 57.5378C18.877 64.3946 26.6667 69.7437 33.0425 70.7528C33.0655 70.7548 33.0883 70.7487 33.1068 70.7356C33.1254 70.7224 33.1384 70.703 33.1437 70.681C33.1489 70.659 33.1459 70.6357 33.1353 70.6155C33.1246 70.5953 33.107 70.5793 33.0856 70.5706C29.9442 69.2417 26.8872 68.0621 24.1541 65.9483Z" fill="black"/>
<path d="M34.2248 70.9735C34.1956 70.9711 34.1666 70.978 34.142 70.9932C34.1174 71.0083 34.0985 71.0309 34.088 71.0577C34.0776 71.0843 34.0762 71.1138 34.084 71.1416C34.0918 71.1694 34.1085 71.1942 34.1315 71.2122C34.5818 71.5194 35.1028 71.7091 35.6449 71.7633C35.6655 71.7645 35.6859 71.7593 35.7032 71.7483C35.7205 71.7375 35.7338 71.7214 35.7411 71.7025C35.7485 71.6836 35.7497 71.6628 35.7443 71.643C35.739 71.6233 35.7276 71.6056 35.7116 71.5925C35.2765 71.2645 34.7644 71.0513 34.2248 70.9735Z" fill="black"/>
<path d="M78.5723 87.3288C76.2697 86.6409 73.9841 85.9258 71.566 85.959C69.4605 85.9833 67.6959 87.0871 65.9004 88.0157C60.3978 90.8665 54.6176 93.3102 49.3175 96.5111C49.2463 96.5553 49.3191 96.6621 49.3909 96.633C54.7144 94.4787 59.8959 91.8136 65.0344 89.2588C66.9414 88.3103 68.7223 87.1535 70.8579 86.7536C73.3224 86.2918 76.0673 87.2858 78.5159 87.5672C78.6525 87.5825 78.7097 87.3698 78.5723 87.3288Z" fill="black"/>
<path d="M55.2845 12.1454C63.5705 14.8853 71.8476 17.643 80.1661 20.2834C80.1925 20.2937 80.2218 20.2933 80.2476 20.2823C80.2734 20.2714 80.2935 20.2507 80.3036 20.2249C80.3136 20.199 80.3129 20.1702 80.3014 20.1447C80.2899 20.1191 80.2686 20.099 80.2422 20.0887C71.2942 16.5926 62.1789 13.5582 53.0643 10.5602C46.0144 8.22916 33.6425 2.82787 28.1765 10.2639C28.1385 10.3168 28.2104 10.3872 28.2593 10.345C35.7157 3.9703 47.1512 9.45665 55.2845 12.1454Z" fill="black"/>
<path d="M82.8346 21.1417C83.47 21.3625 84.0832 21.6127 84.7372 21.775C84.7696 21.7834 84.8038 21.7799 84.8333 21.7651C84.8629 21.7503 84.8858 21.7253 84.8977 21.6948C84.9096 21.6643 84.9098 21.6304 84.898 21.5995C84.8863 21.5686 84.8636 21.5428 84.8341 21.5271C83.9099 21.022 82.6162 20.4065 81.5398 20.4516C81.5165 20.4514 81.4941 20.4588 81.4759 20.4727C81.4576 20.4865 81.4448 20.506 81.4391 20.528C81.4335 20.5501 81.4355 20.5734 81.4448 20.5945C81.4541 20.6155 81.4701 20.6329 81.4904 20.6441C81.9213 20.853 82.3716 21.0197 82.8346 21.1417Z" fill="black"/>
</g>
</svg>
