<svg width="24" height="24" viewBox="0 0 24 24" fill="none" xmlns="http://www.w3.org/2000/svg">
<path d="M22.7419 11.2946C22.4498 9.27187 22.4029 8.57175 22.419 8.34863C22.4565 8.26388 22.5735 8.08763 22.6534 7.96838C22.9196 7.57088 23.25 7.07662 23.25 6.4665C23.25 3.85087 19.7689 1.5 15.1646 1.5C11.3359 1.5 7.38413 2.87475 4.59938 4.42987C4.06266 4.69422 3.55289 5.01007 3.07725 5.373C3.07152 5.37709 3.06564 5.38097 3.05963 5.38462C3.0585 5.38538 3.05887 5.38687 3.05813 5.388C1.62862 6.49088 0.75 7.89075 0.75 9.16275C0.75 9.77287 1.08037 10.2671 1.347 10.6646C1.42763 10.785 1.54612 10.9631 1.58212 11.0471C1.599 11.2507 1.55512 11.943 1.2585 13.9916C1.23862 14.1315 1.22175 14.2448 1.21088 14.3231C0.66825 18.2996 0.765375 20.1975 1.57125 21.3281C2.26538 22.3009 3.372 22.5 4.82062 22.5C5.32387 22.5 5.89425 22.4764 6.498 22.4516C7.25475 22.4201 8.11163 22.3849 9.06075 22.3849C10.0099 22.3849 10.8675 22.4201 11.6235 22.4516C12.2276 22.4767 12.7976 22.5 13.3009 22.5C13.5698 22.5 13.8221 22.4899 14.0666 22.4722L14.0655 22.4764C14.1394 22.4764 14.223 22.4674 14.3115 22.4546C14.9685 22.3856 15.5295 22.2236 15.9862 21.8948C18.4207 20.8178 21.9075 18.555 22.4291 17.823C23.2354 16.6927 23.3329 15.603 22.7895 11.6269C22.7782 11.5485 22.7614 11.4345 22.7419 11.2946ZM16.2416 14.4525C17.1139 20.8354 16.3155 21.6915 13.3009 21.6915C12.195 21.6915 10.7902 21.576 9.06075 21.576C7.33125 21.576 5.92687 21.6915 4.82062 21.6915C1.80675 21.6915 1.00838 20.8346 1.87987 14.4525C1.9575 13.8896 2.34188 11.4225 2.244 10.8641C2.15963 10.3845 1.428 9.74438 1.428 9.16275C1.428 7.06163 4.84538 4.19588 9.06075 4.19588C13.2761 4.19588 16.6935 7.062 16.6935 9.16275C16.6935 9.74438 15.9619 10.3845 15.8775 10.8641C15.7793 11.4225 16.1644 13.8896 16.2416 14.4525Z" fill="black"/>
</svg>
