<svg width="20" height="14" viewBox="0 0 20 14" fill="none" xmlns="http://www.w3.org/2000/svg">
<path fill-rule="evenodd" clip-rule="evenodd" d="M9.33958 2.38289C9.68202 2.07907 10.0225 1.76871 10.362 1.45282C10.5911 1.23973 11.0853 0.792716 11.7412 0.595828C12.0839 0.492971 13.0072 0.306353 13.8853 0.967067C14.7522 1.61928 14.8455 2.55087 14.8509 2.89566C14.8515 2.93277 14.8512 2.9695 14.8503 3.00583C15.2085 2.7759 15.5383 2.61447 15.7327 2.5216C15.9184 2.38483 16.1039 2.25496 16.253 2.15667C16.253 2.15667 16.258 2.15339 16.261 2.15139C16.3196 2.11258 16.5122 1.9852 16.7131 1.89205C16.7544 1.87293 16.8235 1.84221 16.9107 1.81086C16.9761 1.78732 17.1607 1.72278 17.4062 1.69197C17.5303 1.67641 17.759 1.6574 18.0409 1.70092C18.3185 1.74377 18.8024 1.87228 19.2488 2.28378C20.3256 3.27632 19.9515 4.55028 19.8755 4.77272C19.7612 5.10734 19.5972 5.33383 19.5534 5.39423C19.4855 5.48797 19.4239 5.55845 19.3894 5.59669C19.3191 5.67456 19.2561 5.73419 19.2241 5.76405C18.8634 6.09964 18.48 6.33589 18.1836 6.49827C18.1749 6.50532 18.1668 6.51195 18.1592 6.51819C17.7661 7.0468 17.4007 7.54502 17.1143 8.04986C16.7854 8.6294 16.7293 8.93546 16.7293 9.02275C16.7293 10.3114 15.696 11.356 14.4214 11.356C13.8803 11.356 13.3827 11.1678 12.9892 10.8526C12.8611 10.9434 12.7335 11.0312 12.6066 11.1157C12.3077 11.3148 11.9393 11.5757 11.5382 11.8598C10.8144 12.3724 9.98387 12.9606 9.26123 13.3984L9.25876 13.4L9.25115 13.4048L9.22418 13.4222C9.20014 13.438 9.17389 13.4556 9.13807 13.4797C9.13807 13.4797 9.13204 13.4838 9.12763 13.4868C9.082 13.5177 8.94071 13.6135 8.81463 13.6848C8.77307 13.7083 8.68454 13.7573 8.57056 13.8067L8.56746 13.8081C8.52674 13.8267 8.13858 14.0039 7.62785 13.9999C7.33663 13.9977 6.60802 13.9323 5.9939 13.2994C5.33987 12.6254 5.30675 11.8249 5.34272 11.4412C5.36795 11.1721 5.43878 10.9391 5.51058 10.7618C4.71256 11.1685 3.83532 11.466 3.18132 11.6833C2.91938 11.7703 2.24636 11.95 1.47807 11.6296C0.568576 11.2502 0.191196 10.4693 0.0696179 9.96056C-0.036801 9.51524 0.00446691 9.1405 0.0273897 8.97691C0.0551268 8.77897 0.0994885 8.61056 0.133206 8.49654C0.239876 8.13584 0.468283 7.63578 0.423509 7.7429C0.659993 7.17713 0.976928 6.75804 1.14469 6.53621L1.15302 6.52519C1.16408 6.51056 1.17441 6.49691 1.18408 6.48412C1.25981 6.38402 1.2957 6.33658 1.33023 6.28629C1.34947 6.25828 1.35789 6.24394 1.36019 6.23989C1.89692 5.11736 2.77808 3.86826 3.41675 3.04296C3.61605 2.78543 3.87609 2.52332 4.04009 2.35873C4.11179 2.28676 4.17823 2.22069 4.24179 2.15748C4.36548 2.03447 4.47825 1.92232 4.59771 1.79868C4.72559 1.66635 4.81707 1.56535 4.87875 1.492C5.25472 0.506384 6.26202 -0.126871 7.34256 0.0215073C8.51775 0.182882 9.36551 1.21196 9.33958 2.38289ZM9.41 13.1461C9.41 13.1461 9.41492 13.1401 9.42779 13.126C9.41694 13.1388 9.41 13.1461 9.41 13.1461ZM10.3965 2.19095L10.3992 2.18783L10.3965 2.19095ZM18.82 6.03643C18.82 6.03643 18.8134 6.04079 18.802 6.04754C18.8146 6.03948 18.82 6.03643 18.82 6.03643Z" fill="#FE6F61"/>
</svg>
