<svg width="283" height="28" fill="none" xmlns="http://www.w3.org/2000/svg">
<path d="M1.66113 3.97277C1.66113 8.32309 1.92341 12.622 1.92341 16.9701C1.92341 18.0465 2.14162 19.1905 2.18569 20.2923C2.29131 22.9329 3.22772 18.9784 3.48251 18.1504C4.25767 15.6311 5.07075 13.2243 5.07075 10.5589C5.07075 9.28323 5.59531 8.05962 5.59531 6.74126C5.59531 5.7532 5.52346 4.94138 5.98873 4.1039C6.36667 3.4236 6.11987 5.17502 6.11987 5.44444C6.11987 7.46365 6.45026 9.35654 6.9067 11.3166C7.66726 14.5825 8.21809 18.3052 8.21809 21.6766C8.21809 22.1088 8.21809 22.5411 8.21809 22.9734C8.21809 23.7486 8.47732 21.3205 8.48037 21.0791C8.51584 18.2768 8.38879 15.2031 9.15064 12.4822C9.60076 10.8747 9.22544 9.21133 9.66062 7.64466C9.9917 6.45278 10.7243 2.85232 10.7243 4.08933C10.7243 7.7364 10.1742 11.5652 10.7097 15.207C10.9077 16.5534 11.302 18.116 11.3654 19.4472C11.4154 20.4963 11.5665 21.4696 11.89 22.478C11.9744 22.7412 11.9864 23.486 12.1523 23.2648C12.9019 22.2653 13.4537 20.8022 13.9591 19.6803C16.1276 14.8667 16.3487 9.98227 16.3487 4.80331C16.3487 3.77048 16.3476 5.09927 16.3779 5.37158C16.7642 8.84831 18.0516 12.2439 18.9715 15.6004C19.0084 15.7349 20.103 19.1452 20.2246 19.0101C20.4527 18.7566 20.2829 17.6465 20.2829 17.3781C20.2829 15.4995 20.2953 13.6293 20.414 11.7537C20.549 9.62121 20.8075 7.4648 20.8075 5.32787C20.8075 3.95347 20.9638 8.16577 20.9677 8.21293C21.308 12.3338 22.2736 16.1613 23.27 20.1466C23.3295 20.3847 23.4302 21.2239 23.4302 20.3797C23.4302 18.8529 23.4976 17.3425 23.7508 15.8336C24.1012 13.7452 24.4171 11.6973 24.6833 9.59718C24.7452 9.1089 24.8228 8.64517 24.9456 8.16922C25.0975 7.58088 25.0027 9.38319 25.0185 9.9906C25.0892 12.7135 25.2882 15.4812 25.7762 18.1649C25.7764 18.1664 25.9308 17.0917 25.951 16.9701C26.2995 14.8791 26.8091 12.822 27.3061 10.7629C27.4092 10.3358 27.889 5.91264 27.889 8.19836C27.889 11.0227 28.1173 13.83 28.1513 16.6496C28.18 19.0322 28.2693 16.7806 28.4135 15.6587C28.8075 12.5947 29.2369 9.37835 30.1038 6.40613C30.523 4.96861 30.2621 9.28398 30.2641 9.39319C30.3439 13.9463 31.114 18.4227 31.2986 22.9442C31.4931 27.7105 31.6995 13.3763 32.61 8.69378C32.907 7.16614 33.5541 2.5426 33.3822 4.08933C33.0491 7.08747 33.2635 10.0222 33.5134 13.0214C33.6051 14.122 33.9214 15.3374 33.9214 16.431C33.9214 16.7175 34.7984 13.1626 34.9705 12.5114C35.7709 9.48252 36.653 6.18564 36.8064 3.04022C36.889 1.34692 36.4922 6.41747 36.413 8.11094C36.262 11.3422 36.4909 14.238 37.0396 17.3927C37.3504 19.1801 37.0744 13.7537 37.331 11.9577C37.5581 10.3679 37.9144 8.43047 38.6424 6.9744C38.9685 6.32213 38.9039 7.5431 38.9047 7.58638C38.9471 10.0073 39.0408 12.4245 39.1669 14.8427C39.3716 18.7647 39.4868 22.8375 40.4201 26.6744C40.4594 26.836 40.4765 26.3453 40.4783 26.179C40.5031 23.9003 40.66 21.6225 40.7406 19.3452C40.8586 16.0123 41.2167 12.8132 41.9063 9.55347C42.1209 8.5389 42.3143 7.62871 42.3143 6.59555C42.3143 5.46856 42.3211 8.85021 42.3726 9.97603C42.4574 11.8326 42.5649 13.683 42.5766 15.5422C42.5822 16.4374 42.3745 17.6338 42.7077 18.5001C42.9921 19.2395 43.2924 17.7694 43.3925 17.4801C44.5941 14.0091 45.5308 10.45 46.7293 6.9744C46.7781 6.83285 47.133 5.30975 47.4141 5.26959C47.6207 5.24008 47.5368 5.67312 47.5453 5.88157C47.5673 6.41986 47.5599 7.78233 47.5599 8.19836C47.5599 12.5966 47.4294 17.2154 48.1427 21.5746C48.4722 23.5881 48.9147 17.5673 49.3375 15.5713C50.0189 12.3545 50.9395 9.13584 51.4795 5.89614C51.7996 3.97511 51.7563 5.93574 51.7563 6.75583C51.7563 11.0128 51.6291 15.5904 53.0094 19.6803C53.2929 20.5203 53.462 20.055 53.6505 19.4763C54.1511 17.9401 54.6638 16.4077 55.1659 14.8719C55.7518 13.0799 56.2221 11.2628 56.7396 9.45147C56.8864 8.9375 57.2274 7.40281 57.2642 7.93608C57.4895 11.2036 57.1418 14.5113 57.3224 17.7861C57.3863 18.9437 57.2958 21.2241 57.6867 18.7915C58.232 15.3987 59.069 12.0658 60.1201 8.79577C60.2148 8.50107 60.6738 6.55072 60.6738 6.91611C60.6738 9.8064 60.5774 12.7137 60.7321 15.6004C60.7732 16.3685 60.7213 17.7154 61.14 18.4272C61.207 18.5411 61.2346 18.1787 61.2566 18.0484C61.4693 16.7884 61.7414 15.5493 62.0289 14.3036C62.9617 10.2615 64.1228 6.12798 64.3311 1.96196C64.4355 -0.126318 64.5955 1.8456 64.6225 2.79251C64.7194 6.18355 65.0744 9.60148 65.5259 12.9631C65.6457 13.855 65.6906 14.9356 66.0505 15.7753C66.2818 16.3151 66.9297 13.47 66.9685 13.2982C67.3504 11.6067 67.4779 8.56322 68.8044 7.23667C69.0064 7.03466 69.061 7.76701 69.0667 8.05265C69.1142 10.4536 69.3034 12.8224 69.5912 15.207C69.8122 17.0379 70.4588 22.4786 70.6258 20.642C70.941 17.1745 70.7468 13.6838 71.3689 10.2383C71.5802 9.0681 72.1018 5.68238 72.418 6.82869C72.8112 8.25389 72.4493 10.3023 72.418 11.7246C72.3459 15.0014 72.274 18.2711 72.4763 21.5454C72.5013 21.9493 72.5931 27.4118 73.3214 25.3047C74.7269 21.239 76.4074 17.1912 78.2027 13.2836C78.4935 12.6507 79.2955 9.58462 79.2955 11.5351C79.2955 13.2918 79.0114 18.4445 79.6161 16.7953C80.5306 14.3012 80.5572 11.2862 80.8109 8.66464C81.0466 6.22965 79.5894 8.71976 79.179 9.65546C78.8762 10.3457 77.613 13.7886 77.5907 13.6771C77.1134 11.2905 77.4596 8.59887 77.4596 6.17299C77.4596 4.11225 77.1069 7.77131 77.0662 8.11094C76.7802 10.4939 76.8433 12.8071 76.935 15.1925C76.9924 16.685 77.4218 12.242 77.7802 10.792C78.3298 8.56774 78.9946 6.01038 80.4321 4.16219C80.5557 4.00327 80.347 5.00821 80.3447 5.03645C80.1734 7.13402 80.2293 9.23531 80.4029 11.3311C80.6641 14.4836 81.0584 17.6733 81.7726 20.7586C81.9881 21.6894 82.5178 24.4056 82.7052 23.4688C83.602 18.9846 82.7263 14.398 84.8034 10.1217C85.9003 7.86331 85.1704 11.6659 85.124 12.424C85.0471 13.6795 84.9869 14.9312 84.8617 16.1833C84.8159 16.6413 84.4107 17.9212 84.6868 17.553C84.9824 17.1589 85.0001 16.1209 85.0948 15.6879C85.4204 14.1994 85.7823 12.7194 86.1002 11.2291C86.2525 10.5151 87.1163 5.52341 87.1639 8.7812C87.2038 11.5136 87.4262 14.2372 87.4262 16.9701C87.4262 19.5007 88.8554 12.1145 89.5098 9.67004C90.0835 7.52725 90.3407 4.87534 91.2146 2.83623C91.3363 2.5523 91.02 3.42365 90.9524 3.72506C90.5458 5.536 90.3392 7.39878 90.2092 9.24748C90.0149 12.011 89.9045 14.808 90.2967 17.553C90.3367 17.833 90.4194 17.0005 90.4715 16.7224C90.8149 14.891 91.3454 13.098 91.8849 11.3166C91.9706 11.0335 94.2154 5.32208 94.4494 5.57558C94.861 6.02145 94.7251 8.22672 94.77 8.72292C94.9999 11.2647 95.3627 13.7811 95.6588 16.3144C95.7712 17.2759 95.8191 20.1821 95.8191 19.2141C95.8191 15.9346 96.5318 12.6904 97.1305 9.48061C97.396 8.05736 97.7307 6.66243 98.063 5.25502C98.2718 4.37092 97.9868 5.12782 97.9173 5.45901C97.361 8.10947 97.4226 10.8711 97.1888 13.5605C97.1676 13.8041 97.1126 16.0388 97.1305 15.3964C97.1865 13.3796 97.9702 11.3825 99.3598 9.91774C99.647 9.61507 100.37 8.75206 100.875 8.75206C101.428 8.75206 100.744 9.84921 100.686 10.3986C100.333 13.7288 100.481 17.0469 100.54 20.3797C100.563 21.6688 101.316 17.9566 101.385 17.6987C102.435 13.8027 103.916 10.2372 105.465 6.53727C106.407 4.28782 105.435 7.02423 105.232 7.89237C104.443 11.2663 103.601 14.6892 103.44 18.1649C103.365 19.7646 103.674 18.8333 103.848 17.8881C104.558 14.0229 105.181 10.1495 106.252 6.36241C106.834 4.30283 106.567 6.02704 106.456 7.06182C106.005 11.28 106.048 15.4884 106.048 19.724C106.048 21.2853 106.54 19.5989 106.762 19.0392C108.105 15.6511 109.164 12.078 110.915 8.86863C111.208 8.33083 112.279 6.912 111.76 7.23667C111.377 7.47566 111.294 8.87052 111.235 9.18919C110.891 11.0713 110.657 12.9598 110.565 14.8719C110.467 16.8993 110.507 18.9334 110.507 20.9626C110.507 22.9005 111.457 17.2047 111.978 15.3382C112.865 12.1647 113.988 9.05708 115.315 6.04185C116.374 3.63583 114.07 11.1944 114.033 13.8228C114 16.1122 114.179 18.4081 114.179 20.7003C114.179 22.3434 114.756 17.4638 115.126 15.8627C115.822 12.8441 116.713 9.49649 118.346 6.81412C118.667 6.28635 118.572 6.66548 118.477 6.95983C118.038 8.32717 117.727 9.74459 117.472 11.1563C116.824 14.7316 116.881 18.3479 116.554 21.9534C116.286 24.9014 117.483 16.1033 118.113 13.2108C118.525 11.3167 118.919 9.41439 119.366 7.5281C119.529 6.84129 119.686 6.33892 119.686 7.35324C119.686 10.9123 119.424 14.47 119.424 18.0338C119.424 19.3354 119.217 19.6277 119.905 18.2524C121.866 14.3294 123.958 10.3289 126.447 6.71212C126.843 6.13696 127.99 4.40517 127.496 6.15842C126.149 10.9499 124.969 15.9113 124.524 20.8752C124.523 20.8901 124.326 24.2404 124.466 24.2265C124.777 24.1953 125.172 20.8711 125.194 20.7294C125.879 16.4477 126.513 12.0664 126.753 7.73209C126.78 7.25971 126.958 6.25814 126.608 7.19296C125.711 9.58305 125.306 12.0851 124.99 14.6096C124.748 16.5488 124.887 11.4806 124.874 11.2C124.855 10.8192 124.236 3.96152 123.489 4.29333C122.514 4.72671 122.082 8.2199 121.93 9.08719C121.659 10.6416 121.522 12.1889 121.522 13.7645C121.522 15.4453 121.737 10.4087 121.916 8.73749C122.041 7.56535 122.166 6.39182 122.426 5.24044C122.707 3.99423 121.942 5.65874 121.814 5.89614C119.26 10.6398 118.102 16.0033 116.597 21.1374C116.43 21.7094 116.071 23.421 116.015 22.8277C115.747 20.0139 115.599 17.1977 115.228 14.391C114.985 12.5609 114.652 10.7433 114.324 8.92691C114.284 8.70277 114.184 7.23185 113.873 7.07639C113.413 6.84667 111.486 9.05458 111.396 9.14548C108.433 12.1075 105.67 15.2549 102.871 18.3689C102.531 18.7482 98.2278 24.1498 97.1305 23.0025C95.7511 21.5604 95.7829 17.2478 95.8774 15.4256C95.891 15.1635 96.6302 12.0586 96.2854 11.8994C95.9125 11.7273 94.6006 13.0735 94.4786 13.1817C92.0854 15.3029 90.0505 17.7246 88.1547 20.2923C88.0149 20.4817 84.4472 25.2595 84.2788 24.4596C83.4419 20.4843 83.7543 16.1643 83.7543 12.1325C83.7543 11.742 83.9563 8.03491 83.6377 8.92691C82.4495 12.254 80.6632 15.407 78.8293 18.4126C78.048 19.693 77.7147 20.8428 77.2993 18.8935C76.57 15.4714 76.1606 12.2647 76.4105 8.76663C76.4637 8.0223 77.0534 5.93377 76.6145 6.53727C74.3189 9.69362 72.8086 13.2529 71.0775 16.737C70.5825 17.7331 69.6661 20.3189 69.9118 17.7278C70.2199 14.4788 71.1721 11.1164 72.4472 8.11094C72.7392 7.42246 72.6358 7.27324 71.9226 7.81952C70.1718 9.16057 68.6287 10.8364 67.2599 12.5551C65.6906 14.5254 64.3785 16.6663 62.9906 18.7624C62.5536 19.4222 61.934 20.6156 61.2566 21.1083C60.9263 21.3485 61.1983 20.2928 61.1983 19.8843C61.1983 18.1844 61.1899 16.4843 61.1983 14.7845C61.2001 14.4231 61.4585 9.05103 61.2858 9.07262C60.2612 9.2007 59.0176 10.5244 58.3424 11.1417C56.1783 13.1203 54.3135 15.3809 52.4557 17.6404C51.2662 19.0871 50.0999 20.5591 48.7838 21.8951C48.2283 22.4591 47.8809 22.8174 47.8367 21.7786C47.6773 18.0337 47.9303 14.0681 48.609 10.384C48.7246 9.75618 49.2374 8.55668 49.0898 7.89237C49.0607 7.76157 48.8745 8.05892 48.7984 8.16922C48.1877 9.05476 47.649 10.0015 47.1227 10.9377C45.2288 14.3066 43.4763 17.7638 41.644 21.1666C40.0103 24.2006 43.3539 14.4641 44.6894 11.2874C44.8871 10.817 48.5898 3.42426 49.017 4.04562C50.1401 5.67928 50.1091 8.32353 50.1681 10.2092C50.2002 11.2378 49.9345 13.7441 51.1589 11.8848C51.6059 11.206 55.2296 5.15569 55.8362 5.45901C56.2578 5.66983 54.2835 12.899 54.1751 13.6188C53.9721 14.9675 53.771 16.3392 53.6505 17.6987C53.524 19.1268 54.2798 17.3146 54.4082 16.9993C55.6949 13.8411 57.0269 10.6261 57.9927 7.35324C59.1019 3.5944 57.4409 7.44099 56.8853 8.83949C55.2775 12.8867 54.2102 17.1671 52.3392 21.1083C51.7799 22.2862 50.9875 23.1364 49.8038 22.2157C47.4396 20.3769 45.4559 17.4928 44.0045 14.901C43.6585 14.283 43.4165 13.6594 43.1594 13.0068C42.9133 12.3821 41.5119 14.5055 41.4546 14.5805C39.0576 17.7149 37.0667 21.1656 34.5188 24.1828C34.5047 24.1995 33.5868 25.4228 33.4114 24.9842C32.9128 23.7376 33.1409 21.877 33.1345 20.5837C33.1167 16.9418 33.1889 13.2971 33.1345 9.65546C33.1306 9.39399 33.1798 8.81282 32.7557 9.13091C31.1695 10.3206 29.8722 12.0436 28.4864 13.4439C26.7708 15.1776 24.975 16.817 23.0223 18.2815C22.4354 18.7216 21.5133 19.56 20.72 19.6658C19.5754 19.8184 18.6073 14.7954 18.4761 14.1871C18.1058 12.4701 17.8043 10.7105 17.6893 8.95606C17.6633 8.55947 17.8061 7.71092 17.6455 7.30953C17.4517 6.82498 16.9824 8.116 16.6693 8.5335C15.4965 10.0972 14.3493 11.695 13.318 13.3565C13.1169 13.6805 11.5956 16.0283 11.686 15.717C12.5506 12.7388 12.9257 9.66303 13.4491 6.61012C13.6685 5.33049 12.5073 9.82571 12.4 10.18C11.915 11.7805 11.3688 13.3807 11.0157 15.0176C11.0138 15.0268 10.7453 16.7652 10.9574 16.6496C11.7949 16.1927 12.5825 14.8214 13.114 14.1142C14.5393 12.2174 15.8723 10.2529 17.2813 8.34407C17.5101 8.034 20.1858 4.9013 20.108 5.3133C19.2854 9.67322 17.9693 13.8362 17.7184 18.3107C17.6599 19.3536 16.806 23.2862 18.5927 21.662C23.448 17.2481 27.9571 12.47 33.2803 8.59178C35.1623 7.2206 37.0983 6.04297 39.3272 5.34244C39.927 5.15394 41.3157 4.55151 41.9937 4.81788C42.7128 5.1004 42.4696 8.9243 42.5766 9.62632C42.8227 11.2413 42.6673 11.894 44.3979 11.2583C47.6677 10.0571 51.2085 8.36832 54.7434 8.24208C56.7999 8.16863 56.215 11.6471 56.215 12.9631C56.215 14.2839 55.8437 15.7429 57.3953 14.9302C62.9911 11.9991 69.0848 9.53965 75.1574 7.81952C76.5899 7.41372 78.7431 6.04505 78.771 8.02351C78.7963 9.82061 79.0498 12.4975 80.5195 13.7645C81.4188 14.5397 82.7359 14.3073 83.798 14.1142C86.6629 13.5933 89.4621 12.6171 92.2055 11.6663C95.4493 10.542 98.643 9.2812 101.881 8.14008C102.472 7.93154 104.736 6.8033 105.523 7.17839C106.821 7.79652 104.544 14.515 106.689 14.4639C110.401 14.3755 114.171 10.6962 116.889 8.60635C118.707 7.2086 120.496 5.75429 122.397 4.46818C122.514 4.38878 124.406 3.01898 124.233 3.56478C123.086 7.16864 122.48 10.9194 122.338 14.697C122.332 14.8655 122.071 19.3336 122.95 18.2232C124.728 15.978 126.157 13.7114 128.429 11.8994C130.127 10.5454 129.197 12.5584 128.997 13.8228C128.717 15.5989 128.329 17.6005 128.735 19.3889C129.016 20.624 129.663 17.132 129.77 16.7953C130.542 14.3576 131.19 11.8128 132.742 9.74289C132.835 9.61867 133.192 9.11777 132.888 9.65546C132.119 11.0151 131.579 12.3836 131.27 13.9248C131.147 14.54 130.277 18.9298 131.139 16.3436C132.063 13.573 133.653 10.8652 135.423 8.54807C135.721 8.15776 137.284 6.44099 136.618 7.93608C135.337 10.81 132.859 14.4886 132.859 17.7278C132.859 18.3894 133.717 16.7152 134.068 16.1541C135.26 14.2466 136.426 12.3179 137.754 10.5006C138.622 9.31444 139.593 8.27108 140.581 7.19296C140.589 7.1848 140.954 6.64054 140.916 6.7704C140.281 8.99535 139.323 10.9796 139.008 13.3274C138.887 14.229 138.733 15.2807 138.847 16.1979C138.877 16.4339 140.288 14.4969 140.377 14.3765C142.954 10.9083 145.344 7.25965 148.362 4.14762C148.534 3.97062 149.072 3.24351 148.741 3.94362C148.036 5.4352 147.407 6.97713 146.861 8.5335C146.672 9.0729 145.64 12.9235 145.958 12.526C147.601 10.472 148.864 8.31646 150.781 6.44984C151.6 5.6527 150.381 8.9934 150.315 9.24748C150.189 9.72819 148.538 16.8216 148.858 16.8535C149.054 16.8732 150.056 14.6847 150.082 14.6388C151.22 12.605 152.415 10.5936 153.724 8.66464C154.557 7.43732 155.437 6.10708 156.493 5.05102C157.092 4.45153 155.935 6.65815 155.546 7.41153C153.627 11.1286 152.038 14.9703 150.417 18.8206C149.545 20.8902 150.918 17.0934 151.014 16.7953C151.583 15.0234 152.152 13.2356 152.879 11.5206C153.088 11.028 154.044 9.74345 153.666 10.1217C150.976 12.8119 149.014 16.1713 146.381 18.9081C141.911 23.5527 141.975 14.388 142.519 11.7683C142.63 11.2367 144.037 7.29858 142.956 9.64089C141.71 12.3402 140.449 15.0248 139.416 17.8152C138.85 19.3435 139.555 14.545 139.882 12.9485C140.15 11.6384 140.458 10.3258 140.931 9.07262C140.958 9.00059 141.707 7.45859 141.222 7.89237C138.045 10.7353 135.386 14.4106 132.917 17.859C131.764 19.4697 130.608 21.7888 130.964 18.4564C131.19 16.3434 131.395 14.2288 131.751 12.1325C131.925 11.109 132.374 9.96753 132.421 8.92691C132.483 7.56306 131.134 11.336 130.44 12.5114C129.995 13.264 128.607 15.4922 130.207 13.6479C133.448 9.9108 137.813 6.52464 142.374 4.57018C143.891 3.92 144.361 4.11316 144.297 5.91071C144.15 10.0132 143.029 14.0242 143.029 18.1649C143.029 18.6152 142.951 19.2765 143.466 18.6895C144.698 17.2856 145.843 15.8065 147.08 14.4056C148.704 12.5667 150.387 10.7784 152.122 9.04348C152.73 8.43534 153.446 7.54774 153.069 8.97063C152.187 12.2956 150.767 15.4374 150.009 18.8061C149.521 20.9717 151.864 17.1148 152.049 16.8535C153.869 14.2861 156.248 10.8101 159.086 9.26205C159.271 9.16125 158.918 9.61995 158.882 9.71375C158.308 11.2285 157.856 12.7814 157.251 14.2891C157.145 14.5515 155.514 18.5183 156.639 16.9993C159.499 13.1346 161.611 8.62786 165.119 5.26959C165.716 4.69827 167.184 3.26268 166.139 4.91988C163.56 9.01046 161.465 13.3368 160.136 17.9901C159.141 21.4696 165.836 4.76445 165.002 8.28579C164.509 10.3696 163.603 12.3721 163.283 14.493C162.896 17.0586 167.445 12.4147 167.844 12.0597C169.426 10.6494 171 9.22332 172.536 7.76123C172.742 7.5642 173.363 7.01028 173.235 7.26582C171.064 11.6082 167.788 15.3126 165.556 19.622C164.047 22.5354 166.514 18.2922 166.809 17.7278C168.953 13.6286 170.985 8.56818 174.313 5.24044C175.434 4.11955 172.729 7.98748 171.894 9.3349C171.645 9.73776 169.811 12.7391 169.811 12.526C169.811 10.0967 170.581 7.65429 171.312 5.37158C171.341 5.28021 171.905 3.82344 171.253 4.36618C169.535 5.79785 168.114 7.71509 166.693 9.42233C165.463 10.8996 163.679 14.2211 161.709 14.9302C161.475 15.0145 161.839 14.4416 161.972 14.2308C162.735 13.0155 163.516 11.8814 164.507 10.8357C164.692 10.6403 166.678 8.9966 166.445 9.4369C164.843 12.4629 163.51 15.6602 162.554 18.9518C162.407 19.4577 161.929 20.7426 162.409 20.5254C163.808 19.8926 165.175 18.5239 166.343 17.5821C168.818 15.5869 171.253 13.5364 173.687 11.4914C174.879 10.4893 176.1 9.11754 177.475 8.34407C177.97 8.06585 177.456 9.49774 177.271 10.0343C176.55 12.1287 175.787 14.2085 175.144 16.329C174.733 17.6833 174.291 19.0978 174.24 20.5254C174.212 21.3078 175.226 19.2291 175.246 19.1995C177.145 16.2814 179.225 13.5314 181.424 10.8357C181.857 10.3044 182.333 9.80376 182.735 9.24748C183.099 8.74426 181.965 10.2223 181.613 10.7337C179.444 13.8868 177.965 17.3041 176.076 20.5837C175.115 22.2536 177.777 17.1223 178.743 15.4547C180.512 12.3996 182.287 9.07586 184.935 6.66841C185.189 6.43782 185.512 6.1927 185.169 6.72669C184.218 8.20568 183.329 9.72892 182.488 11.2728C180.964 14.0696 177.45 22.966 178.874 20.1175C180.418 17.0291 181.544 13.7371 183.1 10.6463C183.669 9.51488 185.265 6.1804 185.139 7.44067C185.103 7.8011 184.707 8.36774 184.557 8.66464C183.777 10.2074 182.888 11.6889 182.429 13.3711C182.164 14.3451 181.495 17.1538 182.152 16.3873C184.07 14.1501 185.892 11.8232 187.762 9.5389C188.561 8.56316 189.384 7.57356 190.064 6.50812C190.342 6.07399 190.243 6.23283 190.064 6.62469C188.326 10.4392 186.418 14.1237 184.906 18.0484C184.645 18.7258 183.836 20.6849 184.323 20.1466C185.183 19.1965 185.622 17.5345 186.276 16.4456C188.47 12.7952 191.52 9.47925 195.033 7.04725C196.353 6.13355 193.58 9.90996 192.862 11.3457C192.151 12.7676 191.475 14.209 190.822 15.6587C190.194 17.0539 191.048 15.6016 191.318 15.2216C193.552 12.0768 196.187 9.27269 198.924 6.56641C201.223 4.29338 198.894 7.0735 198.239 7.93608C196.979 9.59564 196.006 11.5137 195.66 13.5896C195.355 15.4208 198.265 10.9344 199.419 9.48061C200.258 8.42478 201.075 7.29289 202.115 6.4207C202.366 6.20963 203.068 5.70265 203.018 6.02728C202.861 7.04804 201.877 8.34071 201.488 9.26205C200.233 12.2358 199.299 15.3785 198.545 18.5146C198.479 18.7881 197.839 20.7454 198.166 21.1083C198.617 21.6098 198.848 19.9441 199.186 19.3598C201.586 15.204 204.462 11.2571 207.856 7.86323C209.518 6.20111 208.927 6.95837 207.87 8.28579C205.882 10.7826 204.471 13.5368 202.829 16.2416C201.567 18.3196 205.462 12.1533 206.705 10.0635C207.874 8.09582 209.029 6.11265 210.464 4.32247C210.791 3.91463 211.863 2.76823 211.513 3.15679C209.64 5.23803 208.277 7.71947 206.821 10.0926C206.266 10.9967 204.515 14.2013 204.796 11.506C204.842 11.0634 205.266 6.89594 204.971 6.93068C203.926 7.05354 202.682 8.32189 201.969 8.94148C199.827 10.8026 197.836 12.8728 195.98 15.0176C195.797 15.2295 193.718 18.0282 194.028 17.1158C194.417 15.9688 194.961 14.8771 195.368 13.7354C195.439 13.5367 196.215 11.0758 195.937 11.302C195.027 12.0414 194.381 13.3366 193.722 14.2745C192.564 15.9231 191.392 17.5637 190.196 19.1849C189.979 19.4786 189.054 21.3552 188.797 20.5837C188.29 19.0636 189.83 8.70307 188.025 9.01434C186.803 9.22495 185.587 9.89799 184.498 10.4423C181.844 11.7692 179.252 13.2263 176.659 14.6679C176.025 15.0204 174.619 16.151 174.619 15.4256C174.619 13.2352 175.457 10.7787 175.945 8.66464C176.215 7.4935 176.347 6.97009 176.688 5.88157C176.792 5.55033 177.287 4.68246 177.009 4.89074C176.266 5.44812 175.785 7.55022 175.45 8.37321C175.379 8.5459 173.837 12.7737 173.978 12.7737C174.044 12.7737 174.833 11.4906 174.911 11.3748C175.924 9.85481 172.798 14.3674 171.938 15.9793C171.065 17.6172 168.292 22.3302 169.636 21.05C170.473 20.2525 171.155 19.1819 171.909 18.3107C174.664 15.1268 177.679 12.2485 180.899 9.5389C183.62 7.24949 191.748 0.365451 189.234 2.87994C186.898 5.21566 184.851 7.96855 182.808 10.5589C182.277 11.2322 180.276 13.5388 182.4 12.1908C186.195 9.78221 189.948 6.53119 194.203 4.9636C194.365 4.90393 191.789 12.4899 192.221 12.6134C192.535 12.7032 193.013 12.4082 193.256 12.2928C195.251 11.3425 197.126 10.1623 199.011 9.01434C201.443 7.53341 203.928 5.73346 206.603 4.70132C207.967 4.17477 206.143 7.34586 205.976 7.76123C205.295 9.45321 204.67 11.1668 203.994 12.8611C203.805 13.3356 203.18 14.3141 203.208 14.8719C203.231 15.3357 204.131 14.6966 204.548 14.493C207.544 13.0322 210.245 11.0011 212.926 9.04348C214.223 8.09654 215.573 6.81517 217.006 6.05642C217.457 5.81798 216.671 7.02433 216.423 7.46981C215.356 9.39119 214.269 11.497 213.64 13.6188C213.549 13.9279 216.663 10.3853 217.05 9.8886C219.019 7.36494 221.054 4.34682 223.753 2.51566C225.314 1.45614 221.512 5.55391 220.46 7.12011C219.438 8.63982 218.578 10.199 217.837 11.8703C217.509 12.6086 217.24 13.4281 217.385 12.118C217.46 11.4478 218.051 7.538 217.371 7.14925C216.383 6.58484 213.001 13.5053 212.65 14.1725C212.328 14.7819 210.7 19.0635 211.28 16.2124C211.626 14.5095 211.947 12.8011 212.212 11.0834C212.265 10.7409 212.766 8.15065 211.965 9.71375C210.797 11.9909 209.446 14.1404 207.987 16.2416C207.198 17.377 206.962 17.7915 207.448 16.1104C208.067 13.9671 209.105 12.0096 210.143 10.0489C211.341 7.78744 209.173 11.1882 208.919 11.6954C208.804 11.9256 207.052 15.541 207.346 15.717C207.801 15.9902 213.139 9.24421 213.597 8.69378C215.124 6.85531 215.191 6.6007 214.748 8.89777C214.581 9.76396 212.796 14.5405 214.107 14.9302C218.428 16.2148 225.887 1.5889 223.957 5.663C222.937 7.81474 221.804 9.83455 221.509 12.2491C221.383 13.2777 221.209 14.4196 222.15 13.0651C223.436 11.2132 224.197 9.00699 225.72 7.3241C226.261 6.72631 225.82 7.65623 225.763 7.8778C225.373 9.40558 225.148 10.9338 225.122 12.5114C225.115 12.9392 224.852 15.7981 225.297 15.0759C226.589 12.9827 227.478 10.3172 228.998 8.41693C229.411 7.90089 228.673 9.69805 228.517 10.3403C228.168 11.7806 227.837 13.2253 227.497 14.6679C227.401 15.0757 226.541 18.3058 226.9 17.6112C228.151 15.1932 229.436 12.7616 230.732 10.3694C230.971 9.92913 231.091 10.0833 230.965 10.5152C230.442 12.3178 229.72 14.0856 229.115 15.8627C228.641 17.2522 228.05 20.0753 226.958 21.1666C226.745 21.3795 226.954 20.5643 226.958 20.2632C226.975 19.0431 227.153 17.838 227.206 16.6204C227.318 14.0497 225.008 17.3674 224.336 18.1649C224.121 18.419 220.866 22.6487 220.722 22.5362C220.183 22.117 221.306 15.8834 220.022 17.2033C219.432 17.8102 218.828 19.6358 218.041 19.9135C217.573 20.0785 218.004 18.9138 218.099 18.4272C218.458 16.5893 218.69 14.7442 218.944 12.8902C219.242 10.7203 218.798 12.6641 218.405 13.6042C217.938 14.7207 217.464 15.8381 216.875 16.8973C216.564 17.4566 215.739 19.1228 215.797 18.4855C215.859 17.807 216.695 16.7225 217.021 16.2124C218.388 14.0738 220.051 12.1605 221.917 10.4423C223.537 8.95053 225.313 7.65243 227.191 6.50812C227.23 6.48492 229.368 5.09941 229.115 5.89614C228.327 8.37068 226.881 10.603 226.74 13.2836C226.651 14.9655 229.745 10.5611 229.96 10.2674C230.241 9.88225 232.643 6.55357 232.452 7.19296C231.721 9.62881 230.921 12.0478 230.222 14.493C229.857 15.771 233.258 12.2726 233.457 12.0451C234.228 11.1626 234.963 10.2453 235.701 9.3349C236.091 8.85354 235.876 10.4475 235.876 10.588C235.876 12.2637 235.876 13.9393 235.876 15.615C235.876 15.9176 238.252 12.0851 238.557 11.5788C238.683 11.3694 241.978 6.25778 242.316 6.59555C242.469 6.74868 240.287 11.5413 240.131 11.9285C239.991 12.2727 238.857 15.9578 239.344 15.0176C240.977 11.8644 242.315 8.54799 244.21 5.53187C245.415 3.61498 243.531 8.22141 243.424 8.51892C243.199 9.14268 239.399 18.1756 239.081 18.0484C238.672 17.8846 239.315 10.4629 239.285 9.56804C239.255 8.64946 238.856 8.98628 238.265 9.39319C236.423 10.6621 234.69 12.1001 233.064 13.6334C232.239 14.411 231.436 15.4677 230.455 16.0667C230.021 16.3321 230.629 15.0582 230.805 14.5805C231.929 11.5235 232.879 8.41676 234.113 5.40073C234.853 3.59021 231.697 8.50508 230.79 10.2383C230.13 11.5003 229.492 12.7741 228.969 14.0996C228.57 15.1105 228.896 14.7843 229.552 14.1725C232.75 11.1897 235.065 7.36209 238.469 4.58475C238.896 4.23712 239.712 3.08199 239.81 3.62306C239.97 4.50178 238.868 6.28019 238.571 6.98897C237.022 10.6927 235.429 14.366 234.084 18.1504C234.034 18.2885 233.543 19.4436 234.113 18.6749C235.278 17.1019 236.438 15.5335 237.653 13.9976C237.746 13.8809 240.016 10.8816 240.247 11.1126C240.631 11.4969 239.194 14.9061 239.081 15.309C238.592 17.0527 238.174 18.8186 237.77 20.5837C237.657 21.0784 237.2 22.3772 237.624 22.0991C238.586 21.4691 239.374 20.0317 240.043 19.1558C241.467 17.291 242.897 15.4274 244.24 13.5022C244.787 12.7164 246.109 10.237 245.318 12.5551C245.202 12.8947 244.602 15.7593 244.706 15.7024C245.384 15.3327 245.932 14.1395 246.309 13.5459C247.894 11.0497 249.516 8.60428 251.263 6.2167C251.648 5.68988 251.818 4.87542 252.428 4.64303C253.243 4.33286 251.796 6.26773 251.438 7.06182C250.448 9.25263 249.433 11.4313 248.436 13.6188C248.158 14.23 247.883 14.8432 247.605 15.4547C247.543 15.5912 247.55 15.9298 247.416 15.8627C247.024 15.6667 251.636 7.56208 252.02 6.91611C252.585 5.96625 251.721 7.14854 251.685 7.19296C250.889 8.1957 250.068 9.17646 249.237 10.1509C248.814 10.648 244.882 14.991 244.808 13.9831C244.661 11.9974 245.181 10.1354 245.682 8.24208C245.723 8.0872 245.837 7.62038 245.799 7.7758C245.299 9.7757 244.324 11.692 243.482 13.5605C242.744 15.1976 241.929 16.8192 241.5 18.5729C241.393 19.0101 241.359 19.5194 241.384 18.7478C241.461 16.3335 242.358 13.7406 243.584 11.6663C244.117 10.7643 244.105 14.0977 244.152 14.4348C244.484 16.8051 244.94 16.6978 246.746 15.0759C248.061 13.8948 249.313 12.6485 250.651 11.4914C250.807 11.3563 252.45 9.59319 252.02 10.9377C250.992 14.1556 249.763 17.3087 248.727 20.5254C248.312 21.8149 251.122 18.0009 251.204 17.9027C252.794 16.0154 254.376 14.1036 256.1 12.3365C256.368 12.0623 257.091 11.3705 257.091 11.7537C257.091 12.7424 256.481 13.6446 256.61 14.6825C256.675 15.1967 257.044 14.667 257.164 14.493C258.487 12.5742 259.303 10.2136 260.122 8.05265C261.96 3.19928 258.51 10.4548 258.709 8.66464C258.738 8.39608 259.246 6.85971 259.044 7.06182C258.1 8.00535 257.12 9.51135 256.625 10.7483C255.437 13.7188 256.376 5.88372 256.537 6.7704C256.973 9.16736 255.932 11.6302 255.139 13.8228C254.998 14.2113 253.535 18.0851 254.804 16.3727C259.497 10.0368 255.593 18.8061 256.975 18.8061C258.018 18.8061 259.48 16.8251 260.151 16.1541C260.765 15.5405 259.902 16.3479 259.801 16.5621C259.483 17.2382 262.497 13.7639 261.696 15.1487C261.572 15.3617 260.506 17.2252 261.113 16.3144C262.971 13.5272 264.321 10.3292 265.717 7.29496C266.077 6.51381 266.654 4.77409 265.776 6.50812C264.982 8.07507 264.622 9.92447 264.173 11.608C263.635 13.6209 264.074 12.0353 263.677 13.5022C263.621 13.7111 263.359 14.1433 263.575 14.1433C264.564 14.1433 266.362 7.55441 266.65 6.74126C266.656 6.72366 267.563 4.55301 267.233 4.91988C266.213 6.0525 265.325 7.3547 264.464 8.60635C262.959 10.7928 261.638 13.1573 260.559 15.5859C259.733 17.4436 261.526 11.6195 262.308 9.74289C264.987 3.31288 260.781 13.6233 262.278 13.8956C263.652 14.1455 265.877 11.2126 266.621 10.3403C266.779 10.1546 267.26 9.62232 267.16 9.84489C266.494 11.3246 266.061 12.7576 265.834 14.3765C265.787 14.7079 264.888 19.0705 265.834 17.3781C267.533 14.3379 269.833 11.6865 271.691 8.75206C272.658 7.22544 269.242 11.4534 268.369 13.0359C267.584 14.4598 266.414 19.1734 267.262 17.7861C269.689 13.8148 272.053 9.7933 274.358 5.75043C275.148 4.36508 276.414 1.57207 274.722 4.58475C273.636 6.51827 272.612 8.48243 271.691 10.5006C271.447 11.0356 271.052 12.7198 271.021 12.1325C270.98 11.356 271.023 6.43775 271.531 9.14548C271.675 9.91422 271.417 14.8553 272.624 13.6479C272.909 13.3624 274.148 11.646 273.979 12.322C273.44 14.4797 273.232 17.1092 272.23 19.1121C271.481 20.6102 273.747 16.1223 274.402 14.5805C274.529 14.2806 274.922 13.3913 274.839 13.7062C274.478 15.0655 274.167 16.4211 273.964 17.8152C273.78 19.0836 273.761 20.3665 273.586 21.6328C273.523 22.0855 273.383 22.3959 273.513 21.7203C274.031 19.0276 274.239 16.054 274.416 13.3128C274.496 12.0671 273.999 11.6027 272.974 12.628C272.917 12.6845 272.086 13.6233 272.449 13.7645C272.888 13.935 273.863 12.5844 274.023 12.3948C275.168 11.0393 278.012 6.60988 277.389 8.27122C276.667 10.1949 275.775 12.0313 275.392 14.0705C275.362 14.2309 276.397 12.8394 276.441 12.7737C277.691 10.9148 278.569 8.8388 279.764 6.94525C281.559 4.10034 279.639 8.35316 279.414 9.27662C279.1 10.5679 278.879 11.8777 278.627 13.1817C278.444 14.1296 278.495 14.1058 279.079 13.3274C279.941 12.1775 281.783 8.32917 281.454 9.72832C281.086 11.2935 280.504 12.9548 279.939 14.4639" stroke="black" stroke-width="2" stroke-linecap="round"/>
</svg>
