<svg width="100" height="85" viewBox="0 0 100 85" fill="none" xmlns="http://www.w3.org/2000/svg">
<g clip-path="url(#clip0_425_2)">
<path d="M15.4055 42.0425C15.4148 42.4421 15.5722 42.8248 15.8483 43.1192C15.9782 43.2533 16.1341 43.3608 16.3069 43.4353C16.4797 43.5098 16.6659 43.5498 16.8547 43.553C17.2403 43.5742 17.6193 43.4476 17.9113 43.2C18.2191 42.9309 18.4206 42.5645 18.4809 42.1647C18.512 41.9591 18.5262 41.7514 18.5232 41.5436C18.495 41.0177 18.4668 40.5352 18.4387 40.0961C18.4105 39.9042 18.3615 39.4079 18.2917 38.6073C18.2193 37.8067 18.171 37.1993 18.1428 36.7872C18.1146 36.375 18.1428 36.091 18.2072 36.022C18.2716 35.953 18.5232 35.8899 18.9459 35.8248C19.2263 35.7709 19.6349 35.7098 20.1716 35.6414L21.2685 35.4955C21.4376 35.4679 21.6711 35.4285 21.967 35.3713C22.2628 35.3141 22.5285 35.2668 22.772 35.2253C23.002 35.186 23.235 35.1655 23.4684 35.1642C23.8911 35.1386 24.1166 35.3299 24.1447 35.744C24.1729 36.1581 24.1729 36.6688 24.2292 37.3571C24.2856 38.0453 24.3138 38.5166 24.3138 38.765C24.4245 40.6424 24.4829 41.723 24.4829 41.9912C24.4749 42.1895 24.508 42.3874 24.5803 42.5728C24.6526 42.7582 24.7626 42.9273 24.9035 43.0699C25.1708 43.3369 25.529 43.4983 25.9099 43.5234C26.0981 43.5396 26.2877 43.5167 26.4663 43.4562C26.6449 43.3957 26.8085 43.299 26.9464 43.1724C27.2447 42.9042 27.4449 42.5474 27.516 42.1568C27.5714 41.7317 27.5996 41.3036 27.6006 40.8751C27.5724 40.4609 27.5301 39.8608 27.4737 39.0746C27.4174 38.2859 27.3872 37.8126 27.3872 37.6489C27.3322 36.7931 27.255 35.7374 27.1557 34.4819C27.0565 33.2264 26.9726 32.1372 26.9042 31.2144C26.8317 30.2941 26.7646 29.2457 26.7029 28.0691C26.6412 26.8924 26.613 25.8092 26.6183 24.8192C26.5901 23.7675 26.5057 21.643 26.3648 18.4458C26.3084 17.59 26.1816 16.9846 25.9843 16.6257C25.8394 16.358 25.6058 16.1465 25.322 16.0261C25.0381 15.9057 24.7209 15.8835 24.4225 15.9631C23.7744 16.1287 23.4503 16.5705 23.4503 17.2883C23.421 17.3603 23.414 17.4392 23.4302 17.515C23.4423 17.6117 23.4503 17.6748 23.4503 17.7004V21.9835C23.4503 24.0107 23.4718 25.7559 23.5147 27.2191C23.5577 28.6823 23.6489 30.1028 23.7885 31.4806C23.8091 31.5544 23.8129 31.6318 23.7999 31.7072C23.7868 31.7827 23.7572 31.8545 23.7129 31.9175C23.6686 31.9806 23.6109 32.0335 23.5436 32.0724C23.4764 32.1114 23.4013 32.1355 23.3235 32.1432C22.9029 32.2003 22.4158 32.2812 21.8663 32.3916L20.1978 32.7229C19.6342 32.8333 19.1431 32.9201 18.7204 32.9714C18.2977 33.0227 18.0925 33.0601 18.024 32.9931C17.9556 32.926 17.9033 32.6815 17.8751 32.2674V31.7724C17.8751 31.3583 17.861 29.4061 17.8328 25.9157C17.8046 22.4253 17.7489 19.7703 17.6657 17.9508C17.6356 17.2054 17.5812 16.7361 17.4967 16.5429C17.4101 16.291 17.2454 16.0719 17.0257 15.916C16.806 15.7602 16.5422 15.6753 16.2709 15.6732C15.9831 15.6745 15.7025 15.7611 15.4659 15.9217C15.2208 16.0755 15.0407 16.3108 14.9587 16.5843C14.8668 16.8508 14.8238 17.1313 14.8319 17.4125V27.0121C14.6653 30.918 14.7641 34.8305 15.1277 38.7236C15.2847 40.0777 15.3773 41.184 15.4055 42.0425Z" fill="black"/>
<path d="M31.7083 42.6578C32.1158 42.797 32.5447 42.867 32.9763 42.8648C33.4409 42.8913 33.907 42.8774 34.3691 42.8234C34.8783 42.7682 35.2909 42.7189 35.615 42.6755C35.939 42.6321 36.4201 42.5611 37.0722 42.4507C37.7243 42.3403 38.143 42.2712 38.3402 42.2436C38.4849 42.2149 38.6264 42.1727 38.7629 42.1174C39.0233 41.9944 39.2418 41.8 39.3919 41.5578C39.5419 41.3156 39.617 41.036 39.6082 40.7528C39.578 40.1731 39.256 39.7668 38.6361 39.5125C38.207 39.3423 37.7332 39.3126 37.2855 39.4277C36.9172 39.4848 36.3416 39.5815 35.5526 39.7175C34.7636 39.8536 34.1598 39.966 33.7411 40.0508C33.3225 40.1356 33.0528 39.9522 33.0226 39.5125C32.9112 37.856 32.8133 36.5039 32.7287 35.4561C32.6724 35.0144 32.8978 34.7679 33.405 34.7107C35.3091 34.449 37.2271 34.2969 39.1493 34.2552C39.5927 34.2751 40.0282 34.1347 40.373 33.8608C40.5268 33.7295 40.65 33.5674 40.734 33.3853C40.8181 33.2033 40.8611 33.0056 40.8601 32.8058C40.8746 32.6072 40.8442 32.408 40.7712 32.2222C40.6981 32.0365 40.5842 31.8688 40.4375 31.731C40.0913 31.4323 39.6522 31.2572 39.1916 31.2341C38.938 31.2341 38.473 31.2617 37.7967 31.3169C36.8132 31.3721 35.1098 31.5923 32.6865 31.9775C32.5737 31.7856 32.5174 31.4274 32.5174 30.9028C32.4892 27.4532 32.4751 24.6661 32.4751 22.5416C32.4751 21.8265 32.5033 20.8891 32.5596 19.7296C32.5596 19.3983 32.5597 19.1715 32.5798 19.0453C32.5957 18.9193 32.6563 18.8028 32.7509 18.716C32.7907 18.672 32.8392 18.6363 32.8935 18.6112C32.9479 18.5861 33.0068 18.5721 33.0668 18.5701H33.7411C35.15 18.5977 36.6428 18.6529 38.2194 18.7357C38.6463 18.7787 39.0777 18.7364 39.4875 18.6115C39.7572 18.516 39.9907 18.3421 40.1569 18.113C40.323 17.884 40.4139 17.6107 40.4173 17.3297C40.471 16.6947 40.1892 16.2254 39.572 15.9217C39.3184 15.7837 38.9098 15.7147 38.3462 15.7147H32.0464C31.7623 15.7092 31.4785 15.737 31.201 15.7975C30.3014 15.9631 29.8364 16.4896 29.8103 17.3751C29.7801 17.734 29.7378 18.2644 29.6815 18.9704C29.6251 19.6764 29.5969 20.0392 29.5969 20.0668C29.1461 25.5883 29.2729 32.4022 29.9773 40.5083C30.0049 40.9976 30.186 41.4666 30.4958 41.8513C30.8056 42.236 31.229 42.5176 31.7083 42.6578V42.6578Z" fill="black"/>
<path d="M44.0844 42.2002C44.9848 43.4728 46.322 44.0802 48.0958 44.0223C49.0257 43.9375 49.5329 43.8843 49.6174 43.8567C51.1109 43.553 52.1387 43.2243 52.7009 42.8707C53.0919 42.6363 53.3792 42.267 53.506 41.8354C53.6195 41.4481 53.574 41.0327 53.3792 40.6779C52.9767 39.9857 52.2964 39.822 51.3081 40.179C51.248 40.2205 51.1793 40.2488 51.1069 40.2618C51.0857 40.2859 51.0599 40.3057 51.0308 40.3199C51.0018 40.3341 50.9702 40.3425 50.9378 40.3446C50.0417 40.6826 49.1047 40.9053 48.1502 41.0072C47.3612 41.09 46.7694 40.7449 46.375 39.9719C46.1495 39.5039 45.9664 38.6625 45.8255 37.4478C45.5652 34.3919 45.5228 31.322 45.6987 28.2603C45.7268 27.9856 45.7691 26.4691 45.8255 23.711C45.8818 20.9529 46.0093 18.856 46.2079 17.4204C46.2337 17.2465 46.2186 17.0691 46.1636 16.9018C46.1153 16.7374 46.0369 16.5831 45.9322 16.4463C45.8326 16.3229 45.7112 16.2181 45.5739 16.1367C45.4377 16.0604 45.2957 15.9945 45.1492 15.9395C44.3897 15.8014 43.853 16.1051 43.539 16.8505C43.4373 17.0736 43.3695 17.3101 43.3377 17.5525C43.2814 18.0514 43.1968 18.7811 43.0861 19.7473C42.858 21.7601 42.6742 25.4411 42.5347 30.7904C42.4438 33.4991 42.5575 36.2108 42.8748 38.9031C43.0008 40.0816 43.4158 41.2128 44.0844 42.2002V42.2002Z" fill="black"/>
<path d="M55.7643 40.6069C56.666 41.8768 58.0038 42.4835 59.7777 42.427C60.7076 42.3442 61.2128 42.289 61.2973 42.2614C62.7907 41.959 63.8186 41.6303 64.3808 41.2754C64.7722 41.0414 65.0596 40.6719 65.1859 40.2401C65.3016 39.853 65.256 39.4368 65.0591 39.0825C64.6646 38.3923 63.9742 38.2267 62.988 38.5856C62.928 38.6271 62.8592 38.6548 62.7867 38.6665C62.7657 38.6914 62.7397 38.7118 62.7102 38.7264C62.6808 38.7409 62.6486 38.7494 62.6156 38.7513C61.9675 39.0273 61.039 39.2482 59.83 39.4138C59.041 39.4947 58.4493 39.1516 58.0548 38.3786C57.8294 37.9092 57.6523 37.0692 57.5054 35.8544C57.2462 32.7985 57.2038 29.7287 57.3785 26.667C57.4094 26.3935 57.4517 24.8764 57.5054 22.1157C57.559 19.3549 57.6865 17.258 57.8878 15.8251C57.9136 15.6518 57.8985 15.475 57.8435 15.3084C57.7958 15.1438 57.7174 14.9894 57.6121 14.8529C57.5134 14.7287 57.3919 14.6237 57.2538 14.5433C57.1181 14.4633 56.976 14.3941 56.8291 14.3362C56.0696 14.2048 55.5329 14.5078 55.2189 15.2453C55.1122 15.4682 55.0402 15.7055 55.0055 15.9493C54.9492 16.4462 54.8653 17.1772 54.754 18.1421C54.5285 20.1575 54.3454 23.8385 54.2045 29.1852C54.1123 31.8939 54.2247 34.6055 54.5406 37.2979C54.6703 38.4814 55.0901 39.6167 55.7643 40.6069V40.6069Z" fill="black"/>
<path d="M66.7738 40.1395C67.505 41.0782 68.3772 41.5817 69.3903 41.6501C70.4034 41.7184 71.3467 41.3529 72.2202 40.5536C72.6874 40.1216 73.0984 39.6348 73.4439 39.1042C74.0702 38.1217 74.5672 37.0655 74.9233 35.9609C75.9363 33.0621 76.514 29.6269 76.6562 25.6554C76.5985 22.5396 76.2463 19.9879 75.5996 18.0002C75.1487 16.6487 74.5295 15.597 73.7418 14.845C73.1529 14.2231 72.3435 13.8457 71.4795 13.79C70.629 13.7557 69.7952 14.0287 69.1367 14.5571C68.5187 15.029 67.9895 15.6029 67.5729 16.253C67.0236 17.1131 66.5708 18.0288 66.2223 18.9842C65.126 21.8238 64.5061 25.1203 64.3625 28.8736C64.227 31.5191 64.4984 34.1695 65.1676 36.7359C65.5621 38.1781 66.0975 39.3126 66.7738 40.1395ZM67.4923 29.9602C67.4923 26.4843 67.9848 23.2975 68.9697 20.4001C69.3016 19.4434 69.7705 18.5377 70.3625 17.7103C70.765 17.1877 71.081 16.9215 71.3346 16.9452C71.5882 16.9688 71.8559 17.2548 72.1397 17.8345C72.7236 18.9898 73.0956 20.2367 73.2386 21.5182C73.8076 25.8215 73.4469 30.1939 72.1799 34.3518C71.9022 35.3523 71.4907 36.3124 70.9562 37.2072C70.7297 37.6047 70.4449 37.9674 70.1109 38.2839C69.7989 38.5876 69.5071 38.5738 69.2233 38.2425C68.8408 37.7747 68.5538 37.239 68.3779 36.6649C67.8989 35.2582 67.6037 33.5492 67.4923 31.5378V29.9602Z" fill="black"/>
<path d="M88.1614 10.2109C87.5408 8.87864 86.7124 7.64919 85.7058 6.56664C81.0947 1.57557 72.5587 2.75284 66.432 2.81989C55.0924 2.92835 43.7527 3.19457 32.417 3.72897C27.3329 3.96758 22.2528 4.28901 17.1888 4.79384C13.1916 5.18823 8.08127 5.38543 4.81865 7.87998C1.50973 10.4219 1.16151 14.3875 0.71871 18.2348C-0.116569 25.4917 0.261841 32.9753 0.813327 40.2381C1.16555 44.8604 1.71705 49.2855 5.02596 52.8232C6.0647 53.8963 7.34341 54.7185 8.76153 55.2251C10.9896 59.6956 14.9587 61.8805 20.063 62.3992C27.1075 63.115 34.317 63.1524 41.4139 63.2096C40.0593 67.9207 38.5961 72.5982 37.0986 77.2757C37.0986 77.2757 37.0986 77.2915 37.0986 77.2994C37.0986 77.3073 37.0805 77.3526 37.0725 77.3802C37.0452 77.4859 37.0344 77.5949 37.0403 77.7036C37.0403 77.7214 37.0403 77.7391 37.0403 77.7569C37.0536 77.9608 37.1192 78.158 37.2311 78.3304C37.343 78.5028 37.4975 78.6446 37.6803 78.7429C37.7376 78.7827 37.7974 78.819 37.8595 78.8513C37.8937 78.8651 37.9319 78.8671 37.9661 78.8789C38.066 78.9194 38.1709 78.9466 38.2781 78.9598C38.4637 78.9849 38.6528 78.9598 38.8249 78.8872C38.997 78.8145 39.1454 78.6971 39.2543 78.5477C41.9835 75.9184 44.6759 73.2516 47.3313 70.5474C46.1096 74.8857 44.7933 79.2102 43.2616 83.45C42.8188 84.6766 44.5336 85.5127 45.4051 84.6706C52.7556 77.5715 59.8847 70.2614 66.6937 62.6634C67.4464 61.8253 69.6162 62.269 70.691 62.1783C73.6295 61.9318 76.552 61.5413 79.4644 61.1016C83.667 60.4646 88.0889 59.5654 91.6876 57.2424C97.8224 53.2827 97.3233 43.2178 97.1904 37.0889C96.9972 27.8817 97.7439 15.0698 88.1614 10.2109ZM3.65932 35.4521C3.30709 28.9347 3.21854 22.2596 4.17056 15.7896C5.06018 9.74546 9.69141 8.74764 15.1539 8.05154C19.4994 7.49939 23.8872 7.22923 28.2588 6.96498C38.6142 6.33987 48.9898 6.08351 59.3634 5.8942C64.9628 5.79363 70.5883 5.62404 76.1897 5.75419C85.3033 5.96913 86.5613 13.6303 87.1933 20.613C87.8635 27.9843 88.5921 35.3516 87.2375 42.6991C86.2573 48.0235 82.5741 49.9126 77.6147 51.2141C74.0562 52.1488 70.3387 52.5945 66.6917 53.0224C64.9527 53.2196 60.1725 52.6162 58.9346 54.0202C53.4158 60.2951 47.6413 66.3648 41.7903 72.3497C43.7265 67.0017 45.2461 61.4743 46.6208 55.9981C46.8583 55.0437 46.1519 54.0478 45.1133 54.0597C38.7893 54.1267 32.4674 54.0754 26.1474 53.8349C21.0613 53.6377 15.7296 53.9098 10.7904 52.5728C10.5729 52.395 10.2966 52.301 10.0134 52.3086C3.47814 49.9442 3.96324 41.1137 3.65932 35.458V35.4521ZM28.3312 59.735C22.9472 59.5536 17.0318 59.8869 13.3425 56.2762C14.9728 56.4734 16.5991 56.5582 18.0724 56.6252C26.4037 57.0038 34.7417 57.1708 43.0865 57.1261C42.8268 58.1279 42.5692 59.1296 42.2955 60.1255C37.636 60.0663 32.9866 59.8967 28.3312 59.7409V59.735ZM94.0969 43.5195C93.9157 46.9093 93.5293 50.9025 91.3052 53.6751C88.9403 56.6331 84.0594 57.2681 80.5714 57.974C74.5091 59.1986 67.4686 57.5008 63.2298 62.2079C58.2101 67.7826 53.0354 73.2253 47.7902 78.597C49.1468 74.7634 50.3604 70.8905 51.4835 66.9623C51.5593 66.7119 51.5641 66.4461 51.4976 66.1932C52.9649 64.665 54.4503 63.1525 55.8975 61.6025C57.3446 60.0525 58.7274 58.538 60.1242 56.9881C61.7485 55.1857 66.3435 55.9114 68.8312 55.6313C78.6473 54.5211 88.3546 52.9534 90.3452 42.2219C91.6675 35.0972 90.8765 27.7516 90.2063 20.6051C90.005 18.5622 89.8661 16.6158 89.5401 14.7582C92.7162 17.7872 92.9617 21.9658 93.3904 26.6729C93.8976 32.3108 94.3988 37.8757 94.0969 43.5254V43.5195Z" fill="black"/>
<path d="M69.4732 50.1571C74.6862 50.3267 86.2875 47.2978 84.9369 40.246C84.8987 40.0488 84.6129 40.0764 84.5626 40.246C82.5297 47.2722 75.141 47.3096 69.3947 49.8732C69.2458 49.9402 69.3303 50.1512 69.4732 50.1571Z" fill="black"/>
<path d="M13.1512 11.9265C13.276 11.826 13.1653 11.6406 13.0285 11.6347C5.38012 11.3034 6.06646 20.3843 5.8833 25.33C5.8837 25.3804 5.9026 25.4289 5.93657 25.4666C5.97053 25.5044 6.01726 25.5289 6.06816 25.5356C6.11907 25.5423 6.17072 25.5308 6.21366 25.5032C6.2566 25.4756 6.28794 25.4337 6.30191 25.3853C6.95806 22.9538 7.21166 20.5046 7.71082 18.0456C8.37099 14.851 10.8084 13.8157 13.1512 11.9265Z" fill="black"/>
<path d="M84.9406 39.1929C85.2466 38.6013 85.2627 37.9269 85.3432 37.2782C85.4599 36.4203 85.4499 35.8011 85.1158 34.9926C85.1035 34.954 85.0776 34.9208 85.0427 34.899C85.0078 34.8773 84.9661 34.8683 84.9251 34.8737C84.8841 34.8792 84.8465 34.8986 84.8187 34.9287C84.791 34.9588 84.775 34.9975 84.7736 35.038C84.6086 36.3178 83.9685 37.9545 84.5482 39.1929C84.5674 39.2275 84.5958 39.2564 84.6303 39.2765C84.6648 39.2966 84.7043 39.3072 84.7444 39.3072C84.7846 39.3072 84.8241 39.2966 84.8586 39.2765C84.8931 39.2564 84.9214 39.2275 84.9406 39.1929Z" fill="black"/>
<path d="M6.23762 26.9095C6.23055 26.8856 6.21729 26.864 6.19914 26.8466C6.181 26.8293 6.15855 26.8168 6.13404 26.8104C6.10952 26.8041 6.08373 26.8041 6.0592 26.8104C6.03467 26.8167 6.01222 26.8291 5.99404 26.8464C5.57942 27.2842 5.50696 27.7318 5.4345 28.3136C5.36204 28.8953 5.23324 29.7294 5.80083 30.1298C5.82077 30.1411 5.8428 30.1484 5.86564 30.1513C5.88848 30.1543 5.91169 30.1528 5.93394 30.1469C5.95619 30.1411 5.97706 30.1309 5.99532 30.1172C6.01357 30.1034 6.02886 30.0862 6.04033 30.0667C6.3523 29.621 6.21145 29.0097 6.22956 28.5009C6.28255 27.9718 6.28525 27.4391 6.23762 26.9095Z" fill="black"/>
<path d="M99.2071 34.0757C99.2071 34.1802 99.3742 34.2098 99.3963 34.1013C100.92 26.7084 100.044 11.7786 91.1221 8.66285C91.0174 8.62735 90.9711 8.77328 91.0516 8.82652C99.6358 14.6005 98.8328 25.0302 99.2071 34.0757Z" fill="black"/>
<path d="M99.1685 35.253C99.0115 35.6967 99.0618 36.1897 99.0437 36.655C99.0108 37.115 99.0189 37.5769 99.0679 38.0354C99.0721 38.0508 99.0809 38.0647 99.0932 38.0752C99.1054 38.0857 99.1205 38.0924 99.1367 38.0945C99.1528 38.0967 99.1692 38.094 99.1838 38.087C99.1984 38.08 99.2107 38.0689 99.2189 38.0552C99.3979 37.6844 99.4978 37.2818 99.5127 36.872C99.5469 36.3455 99.6153 35.7479 99.4382 35.2431C99.4284 35.215 99.4097 35.1908 99.3847 35.174C99.3597 35.1571 99.3299 35.1486 99.2996 35.1498C99.2694 35.1509 99.2403 35.1615 99.2166 35.1801C99.193 35.1987 99.1762 35.2242 99.1685 35.253Z" fill="black"/>
<path d="M16.5283 63.5745C12.9577 62.5234 10.627 60.2458 7.9843 57.8558C7.97615 57.8471 7.96496 57.8417 7.95295 57.8406C7.94095 57.8396 7.92897 57.843 7.91939 57.8502C7.90981 57.8573 7.90331 57.8677 7.90116 57.8794C7.89902 57.891 7.90138 57.903 7.9078 57.913C11.0476 64.0478 20.2498 66.1953 26.5557 64.8149C26.5778 64.8084 26.5968 64.7944 26.6093 64.7754C26.6218 64.7564 26.6269 64.7336 26.6238 64.7112C26.6206 64.6888 26.6094 64.6682 26.5921 64.6532C26.5748 64.6383 26.5526 64.6298 26.5295 64.6295C23.1199 64.5349 19.8432 64.5487 16.5283 63.5745Z" fill="black"/>
<path d="M27.7373 64.5901C27.7093 64.5985 27.6848 64.6155 27.6674 64.6386C27.65 64.6616 27.6406 64.6896 27.6406 64.7183C27.6406 64.7469 27.65 64.7749 27.6674 64.7979C27.6848 64.821 27.7093 64.838 27.7373 64.8464C28.2685 64.9687 28.8228 64.9558 29.3475 64.809C29.3671 64.8026 29.3842 64.7903 29.3963 64.7738C29.4085 64.7574 29.415 64.7376 29.415 64.7173C29.415 64.697 29.4085 64.6772 29.3963 64.6607C29.3842 64.6443 29.3671 64.632 29.3475 64.6256C28.8228 64.4784 28.2682 64.4662 27.7373 64.5901V64.5901Z" fill="black"/>
<path d="M74.9959 63.6849C72.6008 63.8821 70.2117 64.0478 67.9715 64.9588C66.0192 65.7476 64.7773 67.4179 63.4429 68.9363C59.3551 73.5941 54.8606 77.9738 51.0888 82.884C51.0385 82.9511 51.1452 83.0241 51.2015 82.9708C55.3759 79.0269 59.2323 74.6589 63.0887 70.4093C64.5197 68.8318 65.7575 67.1063 67.6012 65.9566C69.7286 64.6295 72.647 64.5565 75.0301 63.9275C75.1629 63.892 75.1388 63.6731 74.9959 63.6849Z" fill="black"/>
<path d="M25.9441 2.1317C34.6591 1.66828 43.3722 1.22459 52.0812 0.656661C52.1095 0.656661 52.1367 0.64565 52.1567 0.62605C52.1767 0.60645 52.1879 0.579865 52.1879 0.552146C52.1879 0.524427 52.1767 0.497844 52.1567 0.478244C52.1367 0.458644 52.1095 0.447632 52.0812 0.447632C42.4745 0.447632 32.8799 0.938654 23.2993 1.4632C15.8845 1.85759 2.39524 1.3291 0.0101666 10.2444C-0.00593513 10.3075 0.0866313 10.3469 0.116822 10.2898C4.74205 1.6387 17.39 2.58722 25.9441 2.1317Z" fill="black"/>
<path d="M54.8789 0.48514C55.5511 0.459505 56.2133 0.469364 56.8815 0.382597C56.9147 0.378632 56.9453 0.362906 56.9674 0.338384C56.9896 0.313863 57.0018 0.282243 57.0018 0.249489C57.0018 0.216736 56.9896 0.185115 56.9674 0.160593C56.9453 0.136072 56.9147 0.120345 56.8815 0.116381C55.8369 -0.0177138 54.4079 -0.120257 53.4217 0.313578C53.4 0.321832 53.3818 0.3369 53.3699 0.35641C53.3579 0.37592 53.353 0.398765 53.3557 0.42135C53.3585 0.443934 53.3689 0.464977 53.3852 0.481166C53.4015 0.497355 53.4228 0.507771 53.4458 0.510776C53.9232 0.548577 54.4032 0.53999 54.8789 0.48514Z" fill="black"/>
</g>
<defs>
<clipPath id="clip0_425_2">
<rect width="100" height="85" fill="white"/>
</clipPath>
</defs>
</svg>
