<svg width="20" height="20" viewBox="0 0 20 20" fill="none" xmlns="http://www.w3.org/2000/svg">
<path d="M4.16667 18.3334C3.70833 18.3334 3.31583 18.17 2.98917 17.8434C2.6625 17.5167 2.49945 17.1245 2.5 16.6667V5.00002C2.5 4.54169 2.66333 4.14919 2.99 3.82252C3.31667 3.49585 3.70889 3.3328 4.16667 3.33335H5V1.66669H6.66667V3.33335H13.3333V1.66669H15V3.33335H15.8333C16.2917 3.33335 16.6842 3.49669 17.0108 3.82335C17.3375 4.15002 17.5006 4.54224 17.5 5.00002V10H15.8333V8.33335H4.16667V16.6667H10V18.3334H4.16667ZM18.4375 14.1667L16.6667 12.3959L17.2708 11.7917C17.4236 11.6389 17.6181 11.5625 17.8542 11.5625C18.0903 11.5625 18.2847 11.6389 18.4375 11.7917L19.0417 12.3959C19.1944 12.5486 19.2708 12.7431 19.2708 12.9792C19.2708 13.2153 19.1944 13.4097 19.0417 13.5625L18.4375 14.1667ZM11.6667 19.1667V17.3959L16.0833 12.9792L17.8542 14.75L13.4375 19.1667H11.6667ZM4.16667 6.66669H15.8333V5.00002H4.16667V6.66669Z" fill="#818181"/>
</svg>
