<svg width="146" height="120" viewBox="0 0 146 120" fill="none" xmlns="http://www.w3.org/2000/svg">
<path d="M126.18 17.5257C116.816 8.75167 103.685 9.18112 91.6209 9.90003C76.0471 10.8257 60.6133 13.2462 45.6046 17.5546C35.6169 20.4247 23.1079 24.354 15.7876 32.2122C9.0571 39.4311 9.57695 48.878 11.0292 57.9941C11.0222 58.068 11.0198 58.1422 11.0219 58.2164C12.336 66.3725 15.4856 74.0488 18.7555 81.5976C20.6721 86.0209 23.9782 90.2005 28.2757 92.5186C34.5147 95.8749 41.433 96.5631 48.4109 95.8928C54.7437 95.2848 60.5562 94.1041 64.0368 100.448C65.7882 103.641 67.0603 107.001 69.0148 110.098C69.6243 111.066 71.0972 110.786 71.709 110.02C75.8496 104.808 76.5693 97.7111 81.7794 93.293C87.0847 88.8001 93.5059 87.8773 100.057 86.6487C110.154 84.7388 120.632 82.4635 129.06 76.2903C137.128 70.373 139.25 60.8231 138.245 51.3996C137.045 40.0013 134.997 25.7823 126.18 17.5257ZM134.805 59.9302C133.688 70.666 124.171 76.3056 114.873 79.5092C106.112 82.5286 96.5808 82.7458 87.9044 85.8358C84.03 87.2147 79.3665 90.0582 76.8083 93.2837C73.8838 96.9828 72.8001 101.76 70.4441 105.816C68.2374 101.616 66.7475 97.0168 63.065 93.8254C58.7786 90.1101 50.5053 92.3535 45.5985 92.8229C24.6797 94.8708 17.3572 74.503 13.8914 57.7524C13.8748 57.7041 13.8547 57.657 13.8312 57.6116C12.6389 48.4765 12.6651 39.441 20.1502 32.9522C29.1734 25.1149 43.2441 21.5672 54.5214 18.8097C66.8681 15.799 79.4762 13.9801 92.1699 13.3782C106.115 12.7051 120.945 12.6266 128.453 26.4371C133.37 35.4862 135.872 49.6845 134.805 59.9302Z" fill="black"/>
<path d="M41.864 39.9338C39.3484 38.7718 34.3237 40.0182 34.0107 40.7311C33.6978 41.4439 34.8548 41.7035 35.4061 41.9792C35.8035 42.1819 35.6611 42.62 34.9718 42.7974C33.0457 43.2961 32.4089 44.6526 31.7677 46.0099C30.515 48.6579 28.8376 57.3657 30.4416 62.9131C32.1257 68.7419 34.0966 71.8298 36.066 73.9337C38.1313 76.1376 40.7828 77.6518 44.3456 76.7401C53.4877 74.4126 53.0371 62.2148 51.7064 57.75C48.5013 47.0263 44.7077 41.2541 41.864 39.9338ZM42.1917 72.4936C40.2122 70.7915 39.3964 70.3077 37.1906 64.1654C34.0767 55.4597 36.2683 48.0903 37.2447 45.9924C37.7455 44.9314 38.5687 45.4473 38.7828 45.7164C40.0506 47.3275 41.4892 48.7502 42.5486 50.593C45.8231 56.3235 46.6449 59.4268 46.9747 61.5728C47.6147 65.7399 45.0144 74.9229 42.1917 72.4936Z" fill="black"/>
<path d="M78.8315 46.2616C78.4944 44.1255 77.1465 38.4935 76.1349 37.2356C74.9948 35.8124 70.7208 37.1437 70.3295 38.6871C69.8827 40.4427 68.5711 51.7355 67.9558 52.0427C67.3982 52.3209 62.9399 39.4157 62.349 38.213C61.1009 35.6679 56.5219 37.085 55.9762 39.9641C55.7101 41.4544 55.5936 42.967 55.6285 44.4794C55.827 49.2225 55.7065 54.3299 55.7186 59.0782C55.732 63.6647 56.0149 68.7881 56.4413 73.3382C56.6807 75.8855 60.9581 74.8013 61.0467 72.2862C61.0985 70.8362 60.6775 50.3587 62.1359 50.4956C62.6721 50.5481 65.8731 62.4731 66.0766 63.226C66.7887 65.889 67.6278 67.1829 69.3164 66.9296C71.7092 66.5652 72.2735 65.4545 72.4442 63.8265C72.6149 62.1985 72.8098 51.4933 73.3945 51.1754C75.459 55.7877 76.859 66.0686 78.6058 70.7708C79.3201 72.6992 80.8802 74.4542 83.0132 74.0955C85.4349 73.6888 85.2619 72.5928 84.6085 70.2169C83.024 64.4542 79.6685 51.6204 78.8315 46.2616Z" fill="black"/>
<path d="M101.576 46.5792C99.8177 46.8434 99.1165 46.8745 97.3886 47.218C94.7196 47.7521 93.8198 47.8941 94.2684 49.3249C94.6526 50.5446 95.1174 50.2722 98.0864 49.6067C101.417 48.8467 101.062 54.3428 101.006 55.8377C100.794 62.6556 100.769 65.5167 96.0521 65.819C93.3088 65.9954 90.5761 55.1177 89.9576 51.6085C88.398 42.8278 90.599 37.9602 92.3451 34.9381C92.7527 34.2324 95.8827 31.9472 96.9338 35.262C97.6105 37.8554 97.6095 41.9422 99.7731 41.7908C101.436 41.6721 103.036 41.7048 103.077 40.2123C103.106 38.5163 102.817 36.8305 102.225 35.2406C101.3 32.6645 95.8987 26.2061 89.3253 32.0777C87.6191 33.6031 86.7441 35.6099 85.8669 37.5042C83.7646 42.0376 83.0719 50.4773 86.133 60.0914C86.4227 61.2067 88.2426 66.6823 91.1929 68.3396C94.4806 70.1869 97.9994 70.1401 101.479 68.87C103.496 68.1271 104.56 66.7406 105.336 65.079C106.55 62.499 106.653 59.7362 106.843 56.9618C107.04 54.1401 106.219 51.397 105.828 48.6391C105.653 47.3774 105.794 45.9399 101.576 46.5792Z" fill="black"/>
<path d="M115.593 56.9961C117.518 55.6906 116.092 37.3597 114.235 31.3901C113.323 28.1242 113.005 26.1265 108.982 27.9622C106.649 29.0293 106.493 32.2738 106.676 34.3501C107.24 40.7493 107.549 47.3171 110.225 53.4029C111.192 55.6033 112.25 59.2598 115.593 56.9961Z" fill="black"/>
<path d="M111.023 63.0891C110.597 65.7149 118.573 65.765 119.05 62.7553C119.703 58.696 110.31 58.655 111.023 63.0891Z" fill="black"/>
<path d="M111.278 19.3315C111.459 19.3405 111.555 19.0667 111.36 19.0089C102.685 16.8399 93.4529 17.5254 84.6194 18.3225C74.7499 19.2169 63.3894 20.4882 54.3463 24.8257C54.3159 24.842 54.2921 24.8682 54.279 24.8998C54.2658 24.9315 54.2639 24.9666 54.2738 24.9993C54.2837 25.0321 54.3046 25.0605 54.3332 25.0796C54.3617 25.0987 54.396 25.1075 54.4303 25.1044C63.229 23.4944 71.7693 21.1646 80.684 20.0207C90.8751 18.7084 101.042 18.8108 111.278 19.3315Z" fill="black"/>
<path d="M115.688 20.2895C116.413 20.3962 117.285 20.8534 117.979 20.5051C118.04 20.4769 118.087 20.4262 118.111 20.3637C118.135 20.3012 118.133 20.2321 118.106 20.171C117.71 19.4839 116.829 19.4726 116.102 19.3574C115.28 19.2306 114.358 19.1062 113.552 19.3617C113.325 19.4328 113.402 19.7238 113.562 19.8025C114.198 20.1399 114.985 20.1816 115.688 20.2895Z" fill="black"/>
<path d="M31.518 83.1524C25.833 78.5079 23.3301 71.3443 19.5086 65.3665C19.4637 65.294 19.3466 65.3566 19.3611 65.434C21.4639 76.9928 32.2657 91.0087 45.3988 88.7324C45.577 88.7042 45.6289 88.4263 45.4396 88.3699C40.4151 86.8652 35.7498 86.6065 31.518 83.1524Z" fill="black"/>
<path d="M49.8826 87.9139C49.1029 88.0547 48.2867 88.1193 47.6474 88.6272C47.6124 88.6568 47.5857 88.6949 47.5697 88.7377C47.5538 88.7804 47.5491 88.8266 47.5562 88.8715C47.5633 88.9165 47.582 88.959 47.6103 88.9948C47.6387 89.0306 47.6758 89.0586 47.7182 89.076C48.3928 89.3278 49.0613 89.2023 49.757 89.108C50.5878 88.9946 51.3243 88.9469 51.96 88.36C51.9866 88.3356 52.0066 88.3051 52.0184 88.2713C52.0303 88.2373 52.0335 88.2012 52.0279 88.1657C52.0223 88.1303 52.0081 88.0968 51.9864 88.0683C51.9647 88.0397 51.9363 88.0169 51.9035 88.0018C51.2115 87.6821 50.6214 87.7818 49.8826 87.9139Z" fill="black"/>
<path d="M131.148 59.2978C130.079 62.1512 129.265 64.2058 126.957 66.3722C125.005 68.2107 122.612 69.4907 120.67 71.3452C120.629 71.3838 120.604 71.435 120.597 71.4903C120.59 71.5455 120.602 71.6015 120.632 71.6488C120.661 71.6959 120.707 71.7315 120.76 71.7495C120.812 71.7676 120.87 71.7669 120.923 71.7475C125.124 70.3767 133.18 64.6227 131.323 59.2989C131.316 59.2819 131.304 59.2677 131.288 59.2576C131.272 59.2476 131.254 59.2422 131.236 59.242C131.217 59.242 131.199 59.2471 131.184 59.257C131.168 59.2668 131.155 59.2811 131.148 59.2978Z" fill="black"/>
<path d="M124.499 82.7177C116.284 86.6127 107.117 87.4868 98.3355 89.4434C91.7596 90.9104 82.6726 93.4039 80.4548 100.649C80.4298 100.731 80.5444 100.807 80.5915 100.725C89.398 85.4893 111.807 92.0074 124.642 82.9471C124.771 82.8561 124.638 82.6514 124.499 82.7177Z" fill="black"/>
<path d="M129.178 79.2768C128.154 79.9912 127.358 81.0456 126.13 81.4607C125.996 81.5061 126.074 81.6906 126.193 81.6718C126.445 81.6812 126.696 81.6543 126.939 81.5916C127.27 81.4774 127.585 81.3174 127.872 81.117C128.502 80.7014 129.127 80.1428 129.387 79.4163C129.395 79.3894 129.394 79.3607 129.384 79.3345C129.375 79.3081 129.357 79.2855 129.333 79.2699C129.311 79.2543 129.283 79.2465 129.255 79.2477C129.227 79.249 129.199 79.2592 129.178 79.2768Z" fill="black"/>
<path d="M6.64648 42.6178C6.64933 42.6059 6.64734 42.5935 6.6409 42.583C6.63444 42.5726 6.6241 42.5652 6.61214 42.5625C6.60016 42.5596 6.58756 42.5617 6.57708 42.5681C6.56661 42.5745 6.55913 42.5848 6.55628 42.5967C3.82593 49.2903 5.60228 57.5526 7.48117 64.2065C9.44707 71.1716 12.3101 78.2319 16.1841 84.3586C16.2464 84.4571 16.4062 84.3545 16.3548 84.2542C13.4679 77.5649 10.2401 71.1151 8.14808 64.099C6.03839 57.1434 5.5253 49.8034 6.64648 42.6178Z" fill="black"/>
<path d="M113.753 6.49293C119.238 7.94913 123.084 11.1368 127.461 14.4597C127.62 14.5828 127.792 14.3677 127.69 14.218C122.296 6.28126 107.657 2.38886 98.6804 5.20108C98.666 5.20807 98.6544 5.21945 98.6469 5.23356C98.6395 5.24767 98.6369 5.26374 98.6393 5.27944C98.6418 5.29513 98.6493 5.30961 98.6607 5.32075C98.6721 5.33188 98.6867 5.33911 98.7026 5.34133C103.916 5.44725 108.632 5.13412 113.753 6.49293Z" fill="black"/>
</svg>
