<svg width="40" height="40" viewBox="0 0 40 40" fill="none" xmlns="http://www.w3.org/2000/svg">
<path d="M3.592 4.1961C3.48694 4.1173 3.36739 4.05998 3.24018 4.02738C3.11297 3.99479 2.98058 3.98758 2.85058 4.00615C2.72058 4.02472 2.59551 4.06872 2.48251 4.13562C2.36951 4.20253 2.27079 4.29104 2.192 4.3961C2.11321 4.50116 2.05588 4.6207 2.02329 4.74792C1.99069 4.87513 1.98348 5.00752 2.00205 5.13752C2.02062 5.26752 2.06462 5.39259 2.13153 5.50559C2.19843 5.61859 2.28694 5.7173 2.392 5.7961L6.396 8.8001C6.50106 8.87889 6.62061 8.93622 6.74782 8.96881C6.87503 9.0014 7.00742 9.00862 7.13742 8.99005C7.26742 8.97148 7.39249 8.92748 7.50549 8.86057C7.61849 8.79366 7.71721 8.70516 7.796 8.6001C7.87479 8.49504 7.93212 8.37549 7.96471 8.24828C7.99731 8.12107 8.00452 7.98868 7.98595 7.85868C7.96738 7.72867 7.92338 7.6036 7.85647 7.4906C7.78957 7.37761 7.70106 7.27889 7.596 7.2001L3.592 4.1961ZM2 14.0001C1.73478 14.0001 1.48043 14.1055 1.29289 14.293C1.10536 14.4805 1 14.7349 1 15.0001C1 15.2653 1.10536 15.5197 1.29289 15.7072C1.48043 15.8947 1.73478 16.0001 2 16.0001H5C5.26522 16.0001 5.51957 15.8947 5.70711 15.7072C5.89464 15.5197 6 15.2653 6 15.0001C6 14.7349 5.89464 14.4805 5.70711 14.293C5.51957 14.1055 5.26522 14.0001 5 14.0001H2ZM19.996 4.0001C26.294 4.0001 31.484 8.6681 31.964 14.7101L31.992 15.1541L32 15.6041L31.998 22.7961L33.848 27.2401C33.893 27.3481 33.9285 27.4599 33.954 27.5741L33.986 27.7461L34.002 28.0081C33.9998 28.4494 33.8517 28.8776 33.5807 29.226C33.3098 29.5744 32.9312 29.8233 32.504 29.9341L32.272 29.9881L32.002 30.0081H25L24.99 30.3281C24.9096 31.5969 24.3489 32.7875 23.422 33.6576C22.495 34.5277 21.2714 35.012 20 35.012C18.7286 35.012 17.505 34.5277 16.578 33.6576C15.6511 32.7875 15.0904 31.5969 15.01 30.3281L15 30.0081H7.998C7.82242 30.0085 7.64756 29.9857 7.478 29.9401L7.23 29.8541C6.82627 29.6839 6.4896 29.3859 6.27172 29.0057C6.05384 28.6256 5.96681 28.1845 6.024 27.7501L6.066 27.4961L6.152 27.2401L7.998 22.8001L8 15.5861L8.008 15.1381C8.254 8.9001 13.542 4.0001 19.996 4.0001ZM23 30.0081H17L17.014 30.2901C17.0813 30.9826 17.3872 31.6302 17.8794 32.1221C18.3716 32.6139 19.0194 32.9193 19.712 32.9861L20 33.0001C20.7458 33.0001 21.4648 32.7223 22.0168 32.2209C22.5689 31.7195 22.9144 31.0304 22.986 30.2881L23 30.0081ZM19.996 6.0001C14.75 6.0001 10.456 9.8461 10.036 14.7701L10.008 15.1941L10 15.6041V23.0001L9.924 23.3841L7.998 28.0081L31.914 28.0121L32.004 28.0081L30.076 23.3841L30 23.0001V15.6241L29.992 15.2161C29.782 10.0681 25.39 6.0001 19.996 6.0001ZM37.808 4.3961C37.6489 4.18392 37.412 4.04366 37.1494 4.00615C36.8869 3.96864 36.6202 4.03697 36.408 4.1961L32.404 7.2001C32.1918 7.35923 32.0516 7.59613 32.014 7.85868C31.9765 8.12123 32.0449 8.38793 32.204 8.6001C32.3631 8.81227 32.6 8.95254 32.8626 8.99005C33.1251 9.02755 33.3918 8.95923 33.604 8.8001L37.608 5.7961C37.8202 5.63697 37.9604 5.40007 37.9979 5.13752C38.0355 4.87497 37.9671 4.60827 37.808 4.3961ZM39 15.0001C39 14.7349 38.8946 14.4805 38.7071 14.293C38.5196 14.1055 38.2652 14.0001 38 14.0001H35C34.7348 14.0001 34.4804 14.1055 34.2929 14.293C34.1054 14.4805 34 14.7349 34 15.0001C34 15.2653 34.1054 15.5197 34.2929 15.7072C34.4804 15.8947 34.7348 16.0001 35 16.0001H38C38.2652 16.0001 38.5196 15.8947 38.7071 15.7072C38.8946 15.5197 39 15.2653 39 15.0001Z" fill="#FE6F61"/>
</svg>
